<svg xmlns="http://www.w3.org/2000/svg" aria-hidden="true" style="position:absolute;width:0;height:0;overflow:hidden"><defs>
<symbol id="icon-Twitter2" viewBox="0 0 32 32"><path d="M32 16c0 4.42-1.8 8.42-4.69 11.31A15.9 15.9 0 0 1 16.01 32h-.03c-4.4 0-8.4-1.8-11.3-4.69A15.9 15.9 0 0 1 0 16.01V16C0 11.58 1.8 7.58 4.7 4.69A15.9 15.9 0 0 1 15.99 0H16c4.42 0 8.42 1.8 11.31 4.69a15.9 15.9 0 0 1 4.7 11.3V16z" opacity=".1"/><path d="M25.6 10.05c-.72.31-1.47.52-2.27.62a3.94 3.94 0 0 0 1.73-2.15V8.5c-.76.44-1.6.76-2.5.95a3.93 3.93 0 0 0-6.81 2.7c0 .31.03.62.1.9v-.02a11.17 11.17 0 0 1-8.11-4.11 3.96 3.96 0 0 0 1.2 5.25 3.88 3.88 0 0 1-1.8-.48h.03v.05c0 1.92 1.36 3.5 3.15 3.87a3.82 3.82 0 0 1-1.8.05h.02a3.99 3.99 0 0 0 3.68 2.75 7.86 7.86 0 0 1-5.86 1.62h.04a11.12 11.12 0 0 0 6.04 1.77c7.24 0 11.2-6 11.2-11.2 0-.18 0-.34-.02-.51a7.86 7.86 0 0 0 1.98-2.04z"/></symbol>
<symbol id="icon-Twitter" viewBox="0 0 32 32"><path d="M32 16c0 4.42-1.8 8.42-4.69 11.31A15.9 15.9 0 0 1 16.01 32h-.03c-4.4 0-8.4-1.8-11.3-4.69A15.9 15.9 0 0 1 0 16.01V16C0 11.58 1.8 7.58 4.7 4.69A15.9 15.9 0 0 1 15.99 0H16c4.42 0 8.42 1.8 11.31 4.69a15.9 15.9 0 0 1 4.7 11.3V16z"/><path d="M22.4 12.03c-.48.21-.98.35-1.51.42.54-.32.96-.84 1.15-1.46-.5.3-1.06.52-1.66.64a2.62 2.62 0 0 0-4.55 1.8c0 .22.02.42.07.61v-.02a7.42 7.42 0 0 1-5.4-2.73l-.01-.01a2.64 2.64 0 0 0 .8 3.5 2.58 2.58 0 0 1-1.2-.32h.02v.03c0 1.27.9 2.33 2.09 2.58h.01a2.54 2.54 0 0 1-1.2.04h.02a2.65 2.65 0 0 0 2.44 1.83 5.25 5.25 0 0 1-3.9 1.08h.03a7.32 7.32 0 0 0 4 1.18h.02c4.83 0 7.47-4 7.47-7.46v-.35c.51-.37.95-.82 1.3-1.34v-.02z" style="fill:var(--color2, #f4f4fd)"/></symbol>
<symbol id="icon-Linkedin" viewBox="0 0 32 32"><path d="M32 16c0 4.42-1.8 8.42-4.69 11.31A15.9 15.9 0 0 1 16.01 32h-.03c-4.4 0-8.4-1.8-11.3-4.69A15.9 15.9 0 0 1 0 16.01V16C0 11.58 1.8 7.58 4.7 4.69A15.9 15.9 0 0 1 15.99 0H16c4.42 0 8.42 1.8 11.31 4.69a15.9 15.9 0 0 1 4.7 11.3V16z"/><path d="M22.4 22.4v-4.7c0-2.3-.5-4.06-3.18-4.06-1.3 0-2.16.7-2.5 1.38h-.05v-1.16h-2.54v8.54h2.65v-4.24c0-1.12.21-2.2 1.6-2.2 1.36 0 1.37 1.28 1.37 2.27v4.17h2.64zM9.8 13.86h2.66v8.54H9.81v-8.54zm1.34-4.26a1.55 1.55 0 0 0 0 3.09c.84 0 1.53-.7 1.53-1.55s-.69-1.54-1.53-1.54z" style="fill:var(--color2, #f4f4fd)"/></symbol>
<symbol id="icon-Linkedin2" viewBox="0 0 32 32"><path d="M32 16c0 4.42-1.8 8.42-4.69 11.31A15.9 15.9 0 0 1 16.01 32h-.03c-4.4 0-8.4-1.8-11.3-4.69A15.9 15.9 0 0 1 0 16.01V16C0 11.58 1.8 7.58 4.7 4.69A15.9 15.9 0 0 1 15.99 0H16c4.42 0 8.42 1.8 11.31 4.69a15.9 15.9 0 0 1 4.7 11.3V16z" opacity=".1"/><path d="M25.6 25.6v-7.04c0-3.44-.74-6.1-4.77-6.1h-.14c-1.54 0-2.88.82-3.6 2.06l-.02.02h-.06v-1.76H13.2V25.6h3.98v-6.34c0-1.68.32-3.3 2.38-3.3 2.04 0 2.07 1.91 2.07 3.4v6.24h3.97zM6.72 12.78h3.98V25.6H6.72V12.78zM8.7 6.4a2.31 2.31 0 0 0 0 4.63c1.28 0 2.3-1.04 2.3-2.32A2.3 2.3 0 0 0 8.7 6.4z"/></symbol>
<symbol id="icon-Instagram" viewBox="0 0 32 32"><path d="M32 16c0 4.42-1.8 8.42-4.69 11.31A15.9 15.9 0 0 1 16.01 32h-.03c-4.4 0-8.4-1.8-11.3-4.69A15.9 15.9 0 0 1 0 16.01V16C0 11.58 1.8 7.58 4.7 4.69A15.9 15.9 0 0 1 15.99 0H16c4.42 0 8.42 1.8 11.31 4.69a15.9 15.9 0 0 1 4.7 11.3V16z"/><path fill="#f4f4fd" d="M22.38 13.36a4.68 4.68 0 0 0-.3-1.58v.03a3.24 3.24 0 0 0-1.87-1.87c-.4-.16-.87-.27-1.55-.3-.68-.03-.9-.04-2.64-.04s-1.95 0-2.64.04c-.68.02-1.14.14-1.55.3a3.24 3.24 0 0 0-1.87 1.87c-.16.4-.26.88-.3 1.55-.03.69-.04.9-.04 2.64s0 1.96.04 2.64c.03.68.14 1.14.3 1.55a3.17 3.17 0 0 0 1.87 1.87c.4.16.87.28 1.55.3.68.03.9.04 2.64.04 1.74 0 1.96 0 2.64-.04.56-.01 1.1-.12 1.59-.3h-.03a3.3 3.3 0 0 0 1.86-1.85v-.02c.17-.4.27-.88.3-1.55.04-.68.04-.9.04-2.64s0-1.95-.04-2.64zm-1.15 5.23a3.4 3.4 0 0 1-.21 1.19c-.22.56-.66 1-1.22 1.21-.22.09-.56.2-1.2.23-.66.02-.87.03-2.58.03s-1.9 0-2.58-.03a3.5 3.5 0 0 1-1.2-.24l.02.01c-.3-.1-.54-.27-.74-.48-.2-.2-.37-.45-.48-.72v-.01a3.46 3.46 0 0 1-.22-1.19 43.43 43.43 0 0 1-.04-2.61V16c0-1.71 0-1.92.04-2.59.03-.63.13-.96.22-1.19.1-.28.26-.53.48-.73.2-.21.46-.38.74-.48.22-.08.56-.2 1.18-.22.68-.03.88-.04 2.6-.04 1.7 0 1.9 0 2.58.04.62.02.96.14 1.18.22.28.1.54.27.74.48.21.2.37.45.48.73.08.23.19.56.21 1.2.03.67.04.87.04 2.58s0 1.9-.04 2.58z" style="fill:var(--color2, #f4f4fd)"/><path fill="#f4f4fd" d="M16.02 12.72h-.16a3.29 3.29 0 1 0 .17 6.57 3.29 3.29 0 1 0 0-6.58zm0 5.42a2.14 2.14 0 1 1 0-4.28 2.14 2.14 0 1 1 0 4.28zm4.19-5.56a.77.77 0 0 1-1.54 0 .77.77 0 0 1 1.54 0z" style="fill:var(--color2, #f4f4fd)"/></symbol>
<symbol id="icon-Facebook2" viewBox="0 0 32 32"><path d="M32 16c0 4.42-1.8 8.42-4.69 11.31A15.9 15.9 0 0 1 16.01 32h-.03c-4.4 0-8.4-1.8-11.3-4.69A15.9 15.9 0 0 1 0 16.01V16C0 11.58 1.8 7.58 4.7 4.69A15.9 15.9 0 0 1 15.99 0H16c4.42 0 8.42 1.8 11.31 4.69a15.9 15.9 0 0 1 4.7 11.3V16z" opacity=".1"/><path d="M19.2 9.58h1.75V6.54c-.74-.1-1.6-.14-2.48-.14h-.08c-2.52 0-4.25 1.6-4.25 4.51v2.69h-2.78v3.42h2.78v8.58h3.43v-8.58h2.67l.42-3.42h-3.1v-2.35c0-.99.27-1.67 1.65-1.67z"/></symbol>
<symbol id="icon-Instagram2" viewBox="0 0 32 32"><path d="M32 16c0 4.42-1.8 8.42-4.69 11.31A15.9 15.9 0 0 1 16.01 32h-.03c-4.4 0-8.4-1.8-11.3-4.69A15.9 15.9 0 0 1 0 16.01V16C0 11.58 1.8 7.58 4.7 4.69A15.9 15.9 0 0 1 15.99 0H16c4.42 0 8.42 1.8 11.31 4.69a15.9 15.9 0 0 1 4.7 11.3V16z" opacity=".1"/><path d="M25.58 12.05a7.03 7.03 0 0 0-.46-2.39l.02.05a4.6 4.6 0 0 0-1.12-1.7 4.73 4.73 0 0 0-1.66-1.1h-.03A6.88 6.88 0 0 0 20 6.45H20c-1.04-.06-1.36-.06-3.97-.06-2.6 0-2.93 0-3.95.06a7 7 0 0 0-2.38.46l.05-.02c-.65.24-1.22.62-1.7 1.12a4.68 4.68 0 0 0-1.1 1.7 6.9 6.9 0 0 0-.45 2.31v.01a63.12 63.12 0 0 0-.07 4V16c0 2.6.02 2.94.06 3.96.05 1.02.21 1.72.45 2.33.24.64.62 1.22 1.1 1.7.47.48 1.04.85 1.67 1.1h.03c.62.25 1.32.4 2.33.45 1.03.05 1.36.06 3.96.06 2.61 0 2.94 0 3.96-.06a7.01 7.01 0 0 0 2.37-.46l-.05.02c1.3-.51 2.3-1.52 2.8-2.78l.02-.03c.24-.61.4-1.31.45-2.33.04-1.02.05-1.35.05-3.96s0-2.93-.05-3.95zm-1.72 7.84a5.27 5.27 0 0 1-.35 1.81l.01-.04a3.2 3.2 0 0 1-1.8 1.82h-.02c-.53.21-1.14.33-1.78.34-1.02.04-1.32.05-3.88.05s-2.87 0-3.88-.05c-.64 0-1.25-.13-1.82-.34h.04c-.42-.15-.8-.4-1.1-.71-.32-.3-.56-.68-.72-1.1a5.18 5.18 0 0 1-.33-1.78 65.29 65.29 0 0 1-.05-3.93V16c0-2.56 0-2.87.05-3.88.04-.94.2-1.44.33-1.78a3 3 0 0 1 .72-1.1c.31-.32.69-.56 1.1-.72.53-.2 1.15-.32 1.79-.33 1-.05 1.31-.05 3.87-.05 2.57 0 2.87 0 3.88.05.94.04 1.44.2 1.78.33a3 3 0 0 1 1.1.72c.33.31.57.69.73 1.1.13.34.28.85.32 1.78.05 1.02.06 1.32.06 3.88s-.01 2.86-.05 3.87z"/><path d="M16.03 11.07h-.2a4.94 4.94 0 1 0 .21 9.87 4.94 4.94 0 0 0 0-9.87zm0 8.13a3.2 3.2 0 0 1 0-6.4 3.2 3.2 0 0 1 0 6.4zm6.29-8.32a1.16 1.16 0 0 1-2.31 0 1.15 1.15 0 0 1 2.3 0z"/></symbol>
<symbol id="icon-Facebook" viewBox="0 0 32 32"><path d="M32 16c0 4.42-1.8 8.42-4.69 11.31A15.9 15.9 0 0 1 16.01 32h-.03c-4.4 0-8.4-1.8-11.3-4.69A15.9 15.9 0 0 1 0 16.01V16C0 11.58 1.8 7.58 4.7 4.69A15.9 15.9 0 0 1 15.99 0H16c4.42 0 8.42 1.8 11.31 4.69a15.9 15.9 0 0 1 4.7 11.3V16z"/><path fill="#f4f4fd" d="M18.13 11.73h1.17V9.68c-.2-.02-.9-.08-1.7-.08-1.68 0-2.84 1.06-2.84 3v1.8H12.9v2.27h1.86v5.73h2.28v-5.73h1.78l.28-2.27h-2.06v-1.57c0-.65.18-1.1 1.09-1.1z" style="fill:var(--color2, #f4f4fd)"/></symbol>
<symbol id="icon-group5" viewBox="0 0 67 32"><path d="M33.8 15.25a2.08 2.08 0 0 1-.43-1.42v-2.05c0-.63.15-1.1.43-1.44.28-.33.78-.48 1.47-.48.66 0 1.12.14 1.39.4.3.37.45.8.41 1.24v.48h-1.16v-.49c0-.15 0-.32-.03-.47a.46.46 0 0 0-.17-.29.67.67 0 0 0-.43-.1h-.05a.7.7 0 0 0-.4.11.55.55 0 0 0-.18.3v.01c-.04.17-.05.34-.05.5v2.5c-.02.25.03.49.15.7.06.07.14.14.24.17a.63.63 0 0 0 .3.04h.04c.14 0 .27-.04.37-.11a.5.5 0 0 0 .18-.3c.02-.17.03-.33.03-.5v-.5h1.17V14c.03.46-.1.91-.4 1.29-.27.3-.73.46-1.4.46-.68 0-1.19-.16-1.47-.5zm4.87.02c-.3-.32-.45-.78-.45-1.4V11.7c0-.6.15-1.07.45-1.38.3-.32.78-.47 1.48-.47.69 0 1.18.15 1.47.47.3.3.45.77.45 1.38v2.16c0 .6-.15 1.08-.45 1.4-.3.32-.79.48-1.47.48s-1.18-.16-1.48-.48zm2.03-.52c.1-.2.15-.42.14-.64v-2.64c0-.21-.04-.43-.14-.63a.56.56 0 0 0-.24-.17.63.63 0 0 0-.31-.04.64.64 0 0 0-.31.04c-.1.03-.18.1-.24.17-.1.2-.15.4-.14.63v2.65c-.01.22.04.44.14.64.07.07.15.12.24.16a.82.82 0 0 0 .61 0c.09-.04.18-.09.25-.16v-.01zm2.78-4.83h1.26l.94 3.98.97-3.98h1.22l.13 5.75h-.91l-.1-4-.93 4h-.73l-.96-4.01-.1 4.01h-.9l.1-5.76zm5.93 0h1.96c1.13 0 1.7.54 1.7 1.64 0 1.03-.6 1.56-1.78 1.56h-.68v2.55H49.4V9.91zm1.68 2.45c.12.02.24 0 .35-.02s.22-.08.32-.15c.13-.2.2-.43.17-.66 0-.17-.02-.35-.06-.52a.42.42 0 0 0-.1-.15.5.5 0 0 0-.14-.12c-.18-.07-.36-.1-.54-.09h-.47v1.71h.47zm3.72-2.45h1.3l1.33 5.75h-1.12l-.26-1.33h-1.17l-.27 1.33h-1.14l1.33-5.76zm1.11 3.76-.45-2.42-.45 2.42h.9zm2.6-3.76h.85l1.62 3.28V9.92h1v5.75h-.8l-1.64-3.42v3.42h-1.03V9.91zm5.84 3.56L63 9.92h1.14l.82 2.29.78-2.28h1.1l-1.33 3.55v2.2h-1.16v-2.2zm-28.7 4.7v.3h-.99v2.34h-.4V18.5h-1v-.3h2.4zm3.1 2.64h-.32c-.03 0-.06 0-.08-.02a.14.14 0 0 1-.06-.06l-.28-.63h-1.38l-.28.63-.04.07a.14.14 0 0 1-.09.03h-.32l1.2-2.64h.43l1.22 2.63zm-2-.97h1.14l-.48-1.08a1.8 1.8 0 0 1-.1-.23v-.02l-.04.15-.04.1-.48 1.07zm4.1.71h.22c.13 0 .26-.03.37-.08l.16-.06v-.6h-.52a.09.09 0 0 1-.03-.01l-.02-.03v-.22h.94v1a1.8 1.8 0 0 1-.81.28h-.01l-.36.02c-.2 0-.4-.04-.6-.1a1.5 1.5 0 0 1-.49-.28 1.3 1.3 0 0 1-.3-.41v-.01a1.43 1.43 0 0 1-.12-.55v-.04c0-.37.16-.7.42-.92.14-.13.3-.22.48-.28a1.98 1.98 0 0 1 1-.07c.19.03.37.09.53.17.07.04.14.08.2.14l-.11.16a.1.1 0 0 1-.05.03.11.11 0 0 1-.05.01c-.02 0-.05 0-.07-.02a1.44 1.44 0 0 1-.13-.06 1.5 1.5 0 0 0-.65-.14h-.04c-.15-.01-.31.01-.46.07a.93.93 0 0 0-.58.53c-.11.3-.11.59 0 .88a1 1 0 0 0 .24.33 1.02 1.02 0 0 0 .84.26zm3.85-.04h1.32v.3h-1.72V18.2h.41l-.01 2.33zm2.7.3h-.42V18.2h.42v2.63zm1.54-2.62c.02 0 .05.03.07.05l1.76 1.99v-2.06h.36v2.64h-.2l-.1-.01a.23.23 0 0 1-.07-.05l-1.76-2v2.06h-.35V18.2H48.95zm5.24-.02v.3h-1.47v.87h1.19v.28h-1.19v.9h1.47v.28h-1.9v-2.63h1.9zM10.8 1.9l18.38 4.5v15.79l-18.38-4.5V1.89zM9.63.54v17.9l20.73 5.08V5.63L9.63.55z"/><path d="M20.74 31.84 0 26.74V8.85l20.74 5.09v17.9z"/><path d="m9.97 1.69 18.15 4.45-7.72 6.65L2.26 8.35l7.71-6.66zM9.63.55 0 8.85l20.74 5.09 9.62-8.3L9.63.53zM21.9 30.83l8.46-7.3-8.46-2.07v9.37z"/></symbol>
<symbol id="icon-group4" viewBox="0 0 44 32"><path d="M3.34 26.7a1 1 0 0 1 .25.67c0 .16-.02.32-.1.46s-.17.28-.3.39c-.33.23-.74.34-1.15.3H0v-4.25h2c.39-.03.78.07 1.1.27.13.1.23.23.3.37s.1.28.09.43a.92.92 0 0 1-.23.66c-.16.16-.37.28-.62.33.28.04.52.17.7.36zm-2.4-.65h.87a.9.9 0 0 0 .54-.14.44.44 0 0 0 .14-.2.42.42 0 0 0 .04-.22v-.03a.53.53 0 0 0-.18-.38.88.88 0 0 0-.56-.15H.97v1.11zm1.48 1.64a.48.48 0 0 0 .2-.4v-.08a.48.48 0 0 0-.04-.2.56.56 0 0 0-.16-.2.95.95 0 0 0-.58-.15h-.9v1.17h.91c.21.01.4-.05.57-.15zm4.99.83L6.3 26.86h-.42v1.67h-.95v-4.27h1.81c.45-.02.9.1 1.25.37a1.27 1.27 0 0 1 .14 1.76c-.22.23-.53.39-.86.43l1.18 1.7H7.41zm-1.53-2.24h.78c.55 0 .82-.21.82-.65v-.02a.57.57 0 0 0-.05-.24.63.63 0 0 0-.15-.21.9.9 0 0 0-.62-.18h-.79l.01 1.3zm6.74 1.4h-1.9l-.33.84h-1l1.74-4.2h1.08l1.74 4.2h-1l-.33-.85zm-.25-.65-.7-1.81-.7 1.8h1.4zm6.77 1.5h-.94l-2.12-2.9v2.9h-.95v-4.27h.95l2.12 2.92v-2.92h.94v4.26zm5.41-1.02c-.2.32-.5.58-.86.75-.41.18-.87.27-1.33.27h-1.69v-4.27h1.7c.45-.01.9.08 1.32.26.37.17.66.43.86.75a2.25 2.25 0 0 1 0 2.25v-.01zm-1.09-.1a1.44 1.44 0 0 0 0-2.03 1.75 1.75 0 0 0-1.18-.37h-.66v2.76h.66c.43.02.86-.11 1.18-.37zM13.22.53s12.21 4.15 11.96 10.15v10.18S12.96 16.71 13.21 10.7V.54zm22.84 17.94a17.69 17.69 0 0 1 7.7-2.57h.07v-3.19c-3.2 1.1-5.86 3.11-7.74 5.72l-.03.04z"/><path d="M34.68 19.44a16.21 16.21 0 0 1 9.03-7.35l.12-.03V2.89s-17.4 5.9-17.04 14.47v14.47s.78-.25 2-.75c0-.46 0-.93.05-1.4a14.59 14.59 0 0 1 5.84-10.24z"/><path d="M33.02 24.82c.1-1 .3-2 .6-2.96a13.23 13.23 0 0 0-3.68 8.71v.03a48.51 48.51 0 0 0 3.64-1.73l-.29.14a13.19 13.19 0 0 1-.27-4.24v.05zm.7.05a12.9 12.9 0 0 0 .2 3.8c4.76-2.56 10.11-6.52 9.9-11.3v-.42c-3.39.34-6.57 1.68-9.04 3.8-.54 1.2-.92 2.6-1.06 4.07v.05z"/></symbol>
<symbol id="icon-group3" viewBox="0 0 66 32"><path d="M10.2 9.77c-1.86 0-3.36 1.36-3.36 3.05 0 1.67 1.5 3.03 3.37 3.03 1.86 0 3.37-1.36 3.37-3.04s-1.51-3.05-3.37-3.05zm24.9-.97a8.37 8.37 0 0 0-2.87-6.22A10.3 10.3 0 0 0 25.39 0h-.06c-2.58 0-5.06.94-6.89 2.57a8.39 8.39 0 0 0-2.86 6.22v12.87S35.09 19.7 35.09 8.8zM0 25.87a5.84 5.84 0 0 0 1.98 4.33H2A7.17 7.17 0 0 0 6.75 32h.04c1.8 0 3.52-.65 4.8-1.8a5.85 5.85 0 0 0 1.99-4.32v-8.95S0 18.29 0 25.87zm6.79 1.61c-.35 0-.7-.1-1-.27a1.66 1.66 0 0 1-.64-.71v-.01a1.43 1.43 0 0 1-.1-.94v.01c.07-.33.24-.6.48-.82.25-.22.57-.37.9-.44.36-.06.71-.03 1.04.1.33.12.6.33.8.58a1.48 1.48 0 0 1-.22 2.03 1.98 1.98 0 0 1-1.26.48v-.01zM19.2 24.6v3.33h-.68v-3.34h.69zm1.33 1.42v.53h-1.5v-.53h1.5zm.16-1.43v.55h-1.67v-.55h1.67zm3.14 1.6v.15c0 .25-.04.48-.11.68-.06.2-.16.37-.29.51-.13.14-.27.25-.45.33s-.36.11-.57.11h-.06c-.38 0-.73-.17-.97-.43a1.49 1.49 0 0 1-.29-.52c-.06-.2-.1-.43-.1-.67v-.17a2 2 0 0 1 .1-.68c.07-.2.16-.37.3-.51.12-.15.27-.25.44-.33s.37-.1.58-.1.4.02.57.1c.18.08.32.18.45.33a1.82 1.82 0 0 1 .4 1.2zm-.7.15v-.15c0-.18-.01-.34-.04-.47a1 1 0 0 0-.15-.35.6.6 0 0 0-.5-.27h-.06c-.22 0-.4.1-.52.27-.05.1-.1.2-.13.34s-.05.3-.05.47v.16c0 .18.02.33.05.47.03.13.08.25.14.34a.66.66 0 0 0 .85.2c.1-.04.17-.12.22-.2.07-.09.11-.2.14-.34.04-.14.05-.3.05-.47zm2.92.71v-.01c0-.05 0-.1-.02-.15a.3.3 0 0 0-.1-.13l-.2-.12a2.3 2.3 0 0 0-.33-.12l-.43-.16a1.78 1.78 0 0 1-.37-.22.89.89 0 0 1-.23-.28.77.77 0 0 1-.09-.37v-.02c0-.13.04-.26.1-.37a.92.92 0 0 1 .25-.3c.11-.07.24-.14.4-.18a1.72 1.72 0 0 1 1.14.07c.17.08.31.2.41.36s.16.32.16.53h-.69v-.01a.51.51 0 0 0-.06-.25.43.43 0 0 0-.18-.17.65.65 0 0 0-.3-.07h-.03a.7.7 0 0 0-.28.05.4.4 0 0 0-.17.15.35.35 0 0 0-.06.2c0 .06.01.1.04.16l.13.12c.14.08.3.16.47.22h.02a2.21 2.21 0 0 1 .83.42c.17.15.28.38.28.63v.02c0 .14-.03.27-.08.4a.97.97 0 0 1-.64.46 1.83 1.83 0 0 1-1.42-.2.98.98 0 0 1-.3-.34 1 1 0 0 1-.12-.49h.69c0 .1.01.2.04.27a.4.4 0 0 0 .14.17c.06.04.13.07.21.1l.27.03a.8.8 0 0 0 .3-.06.36.36 0 0 0 .22-.33v-.01zm2.64-2.45v3.33h-.68v-3.34h.68zm1.03 0v.53h-2.71v-.54h2.71zm2.62 2.8v.53h-1.77v-.54h1.77zm-1.54-2.8v3.33h-.69v-3.34h.69zm1.3 1.35v.52h-1.53v-.52h1.54zm.24-1.35v.53h-1.77v-.54h1.77zm.4 0H34c.25 0 .47.03.65.11a.9.9 0 0 1 .58.89c0 .18-.04.33-.1.46a.76.76 0 0 1-.25.31c-.1.09-.23.16-.39.21l-.21.11h-1.08v-.53h.8c.11 0 .21-.03.3-.07.07-.04.14-.1.18-.17a.55.55 0 0 0 .06-.26v-.02a.6.6 0 0 0-.07-.27.4.4 0 0 0-.17-.18.65.65 0 0 0-.28-.06H33.44v2.8h-.7v-3.34zm1.87 3.33-.77-1.49h.73l.77 1.45v.04h-.73zm3.6-1.2h-.86v-.53h.89c.1 0 .2-.02.29-.07.07-.03.14-.1.18-.17s.06-.17.06-.27-.03-.2-.07-.28a.47.47 0 0 0-.17-.2.59.59 0 0 0-.3-.08h-.64v2.8h-.68v-3.34h1.3c.26 0 .48.06.67.15.34.17.57.51.57.91v.04c0 .21-.04.4-.14.55a1 1 0 0 1-.43.37c-.2.08-.41.13-.68.13zm3.95.66v.54H40.4v-.54h1.77zm-1.54-2.8v3.34h-.69v-3.34h.69zm1.3 1.36v.52H40.4v-.52h1.54zm.24-1.35v.53H40.4v-.54h1.77zm1.94 0v3.33h-.69v-3.34h.69zm1.02 0v.53H42.4v-.54h2.72zm2.62 2.8v.53h-1.77v-.54h1.77zm-1.54-2.81v3.33h-.68v-3.34h.68zm1.32 1.35v.53h-1.55v-.53h1.55zm.24-1.35v.53h-1.79v-.54h1.77zm.39 0h1.25c.25 0 .47.03.65.11.18.08.33.19.42.35.1.14.16.32.16.54 0 .18-.04.34-.1.46a.83.83 0 0 1-.25.31c-.11.09-.24.16-.38.21l-.22.11H48.6v-.53h.81c.1 0 .2-.02.3-.07.07-.04.13-.1.17-.17a.55.55 0 0 0 .06-.25v-.02a.6.6 0 0 0-.06-.28.4.4 0 0 0-.18-.17.65.65 0 0 0-.28-.07H48.84v2.8h-.68v-3.34zm1.87 3.33-.76-1.49h.72l.77 1.46v.03H50zm2.87-.88v-.01c0-.05-.01-.1-.03-.14a.3.3 0 0 0-.1-.13l-.2-.13a2.3 2.3 0 0 0-.33-.12l-.43-.16a1.8 1.8 0 0 1-.35-.22.78.78 0 0 1-.33-.64v-.04c0-.13.03-.25.09-.36a.92.92 0 0 1 .25-.3c.11-.07.24-.14.4-.18a1.72 1.72 0 0 1 1.15.07h-.02c.18.08.32.2.43.36s.15.33.15.53h-.69v-.03a.5.5 0 0 0-.05-.23.43.43 0 0 0-.19-.17.65.65 0 0 0-.3-.07h-.03a.7.7 0 0 0-.28.06h.01a.4.4 0 0 0-.18.14.35.35 0 0 0-.06.2c0 .06.01.1.04.16l.13.13c.14.08.3.15.47.2l.02.01a2.23 2.23 0 0 1 .83.42c.17.16.28.38.28.63v.02c0 .14-.03.28-.08.4-.06.1-.14.2-.25.28s-.23.14-.39.18a1.83 1.83 0 0 1-1.42-.2.98.98 0 0 1-.3-.34 1 1 0 0 1-.12-.49h.69c0 .11.01.2.05.27.03.07.08.13.13.17.06.05.13.08.22.1.07.02.17.03.26.03.13 0 .22-.02.3-.05a.36.36 0 0 0 .23-.34z"/></symbol>
<symbol id="icon-group2" viewBox="0 0 34 32"><path d="M5.32 31.4h.03l.04.02.17.16c-.14.13-.3.23-.49.31-.22.08-.45.12-.7.1-.21 0-.43-.02-.63-.1a1.31 1.31 0 0 1-.8-.73 1.45 1.45 0 0 1 0-1.17V30a1.42 1.42 0 0 1 .84-.74h.01a2.02 2.02 0 0 1 1.3 0h-.01c.16.05.33.15.46.25l-.15.17-.03.03a.1.1 0 0 1-.05.02H5.3a.13.13 0 0 1-.06-.03l-.08-.03-.1-.07a1.23 1.23 0 0 0-.55-.12h-.06c-.15 0-.32.03-.47.08a1 1 0 0 0-.62.55c-.06.16-.1.32-.08.48v.05c0 .44.28.82.68.96.14.05.29.08.44.08l.27-.02c.21-.02.4-.1.56-.23a.13.13 0 0 1 .08-.04zm4.97-.82c0 .2-.03.39-.11.57-.08.17-.18.32-.33.44-.14.14-.31.24-.5.3a2.2 2.2 0 0 1-1.32 0c-.2-.07-.36-.17-.5-.3a1.3 1.3 0 0 1-.33-.43v-.01a1.46 1.46 0 0 1 0-1.15c.08-.17.18-.32.33-.45.14-.13.3-.22.5-.28a2.05 2.05 0 0 1 1.33 0h-.02c.2.06.37.16.51.29.27.24.45.6.45.99v.03zm-.45 0c0-.16-.02-.31-.08-.46a.95.95 0 0 0-.59-.56c-.32-.1-.65-.1-.96 0-.14.04-.26.12-.37.22-.1.1-.17.22-.23.34-.1.3-.1.62 0 .92.1.27.32.48.6.56.31.1.65.1.95 0 .28-.09.49-.3.6-.55.06-.16.08-.31.07-.47zm3.85.48.04.1.1-.2 1.1-1.72.07-.04.07-.01H15.41v2.78h-.39v-2.23l-1.1 1.74a.15.15 0 0 1-.06.06.2.2 0 0 1-.1.02H13.7a.2.2 0 0 1-.1-.02.15.15 0 0 1-.06-.06l-1.14-1.75v2.23h-.37v-2.77H12.45a.1.1 0 0 1 .06.06l1.12 1.72c.02.02.05.05.06.1zm4.14-.14v1.05h-.43v-2.78h.96c.18 0 .36.02.54.06.14.03.27.09.38.17.1.08.16.17.2.28.06.1.09.23.09.35 0 .26-.13.49-.31.63a1.57 1.57 0 0 1-.9.25h-.53zm0-.3h.52c.12 0 .23-.01.33-.03.1-.03.18-.07.25-.13.12-.1.2-.24.2-.4V30a.47.47 0 0 0-.05-.2v.01a.54.54 0 0 0-.15-.2.92.92 0 0 0-.58-.14h-.52v1.15zm5.79 1.35h-.34l-.1-.02a.18.18 0 0 1-.05-.07l-.3-.68h-1.47l-.3.68a.16.16 0 0 1-.05.07.16.16 0 0 1-.09.02H20.57l1.28-2.78h.46l1.3 2.78zm-2.13-1.03h1.21l-.51-1.13a1.6 1.6 0 0 1-.1-.27l-.05.15-.05.12-.5 1.13zm4-1.74.06.05 1.88 2.1v-2.16h.4v2.78h-.22c-.04 0-.07 0-.1-.02a.23.23 0 0 1-.07-.05l-1.87-2.1v2.17h-.4v-2.78h.31zm5.5 1.66v1.1h-.43v-1.1l-1.19-1.67h.39c.03 0 .06 0 .09.02l.06.07.74 1.07c.05.07.09.16.13.24v.01l.06-.11.07-.14.74-1.09a.28.28 0 0 1 .05-.05.15.15 0 0 1 .1-.03h.39l-1.2 1.68zm-17.52-6.34.57.05a15.83 15.83 0 0 0 7.05-5.2l.02-.03a12.3 12.3 0 0 0 2.52-7.48v-.23.02l-3.2-2.74a13.68 13.68 0 0 1-.92 8.73l.03-.08a16.48 16.48 0 0 1-6 6.92l-.07.04z"/><path d="m12.33 24.39.08.02a15.9 15.9 0 0 0 6.42-7.17 13.22 13.22 0 0 0 .58-9l-4.56-3.9A16.53 16.53 0 0 1 17 14.66a17.5 17.5 0 0 1-4.66 9.73v-.01zm15.48-9.53a14.04 14.04 0 0 1-5.37 7.69c-.8.58-1.65 1.11-2.55 1.56a15.85 15.85 0 0 0 5.96-2.88l-.03.02a13.03 13.03 0 0 0 3.8-4.72l.04-.08-1.85-1.59z"/><path d="m27.08 14.42-2.63-2.25a12.83 12.83 0 0 1-2.5 7.3l.02-.04c-1.65 2.24-3.83 4.01-6.34 5.15l-.1.04c.6 0 1.19-.03 1.77-.09a16.4 16.4 0 0 0 6.38-4 13.1 13.1 0 0 0 3.38-6.02l.02-.09zM12.71 2.7 9.57 0a14.9 14.9 0 0 0-6.92 4.66l-.02.02A11.47 11.47 0 0 0 0 11.88c.04 3.05 1.25 5.8 3.19 7.86a15.4 15.4 0 0 0 8.14 4.51c2.89-3 4.58-6.71 4.83-10.6.24-3.86-.96-7.71-3.45-10.96zm21.63 11.32c0-3.38-1.58-6.61-4.37-9a16.24 16.24 0 0 0-10.54-3.74c-1.82 0-3.63.3-5.33.85l19.24 16.45c.63-1.34 1-2.9 1-4.56z"/></symbol>
<symbol id="icon-group1" viewBox="0 0 28 32"><path d="m4.08 0 4.77 4.55H0V26.6h23.15v-8.44l4.77 4.54V0H4.07zm18.86 17.63L9.4 4.73h13.54v12.9zm-4.2 5.74H3.66V8.54h1.07v13.82h14v1zm-12.07 7.3-.56-1.15h-.46l.82 1.53v.89h.41v-.89l.82-1.53h-.46l-.56 1.16zm2.07-1.15h.1l.92 2.43H9.3l-.2-.57h-.93l-.2.57h-.43l.91-2.43h.28zm-.44 1.53H9l-.35-1.02-.35 1.02zm2.93-.4a1.2 1.2 0 0 1-.2-.3v-.01a.64.64 0 0 1 .03-.57.52.52 0 0 1 .21-.2c.1-.06.2-.08.34-.08.12 0 .22.02.31.07a.52.52 0 0 1 .24.68.59.59 0 0 1-.12.17c-.04.05-.1.1-.17.15l-.16.12.48.56c.07-.12.1-.28.1-.44h.35c0 .11-.01.22-.04.33-.03.15-.1.28-.18.4l.36.42h-.46l-.14-.17c-.08.06-.16.1-.25.14a1.09 1.09 0 0 1-.8-.03.68.68 0 0 1-.26-.24.65.65 0 0 1-.04-.62 1.5 1.5 0 0 1 .39-.39zm.19.24-.05.03a.64.64 0 0 0-.14.14.4.4 0 0 0-.02.41c.04.06.08.1.14.14.06.04.13.05.22.05a.6.6 0 0 0 .39-.14l-.54-.63zm.1-.44.14-.1c.06-.04.11-.09.15-.14a.3.3 0 0 0 .05-.16v-.01c0-.13-.1-.23-.24-.23h-.01c-.1 0-.2.06-.23.14a.34.34 0 0 0 0 .3l.1.16.03.04zm4.23.7h-.41c-.01.1-.04.2-.09.28a.37.37 0 0 1-.16.16.62.62 0 0 1-.26.06h-.03a.48.48 0 0 1-.41-.22l-.01-.01a.8.8 0 0 1-.1-.25c-.02-.1-.03-.21-.03-.34v-.2c0-.12 0-.24.04-.33.02-.1.06-.2.1-.26s.1-.12.18-.16a.54.54 0 0 1 .23-.05h.02a.7.7 0 0 1 .28.06c.07.04.13.1.17.17.03.07.06.16.06.27h.43c-.02-.16-.07-.3-.14-.44a.81.81 0 0 0-.31-.29 1 1 0 0 0-.45-.1h-.05c-.14 0-.28.02-.4.07a.91.91 0 0 0-.51.6c-.05.13-.07.3-.07.47v.2c0 .18.02.34.07.47.05.14.1.27.2.36.16.2.4.32.67.32h.03c.2 0 .36-.04.5-.11a.78.78 0 0 0 .32-.3c.07-.12.12-.26.14-.42zm2.31-.35v-.13c0-.18-.02-.34-.07-.5a1.1 1.1 0 0 0-.2-.36.87.87 0 0 0-.32-.23.98.98 0 0 0-.4-.08h-.02a.99.99 0 0 0-.4.08.94.94 0 0 0-.52.6c-.05.15-.07.31-.07.49v.13c0 .19.02.34.06.5.06.14.13.26.21.37.17.19.42.31.7.31h.03c.15 0 .28-.03.4-.08a.9.9 0 0 0 .32-.23c.1-.1.16-.23.2-.38.06-.14.08-.3.08-.49zm-.42-.13v.13c0 .14-.01.25-.04.36-.02.1-.06.2-.1.26s-.12.13-.19.16a.55.55 0 0 1-.24.06h-.02a.54.54 0 0 1-.24-.06.53.53 0 0 1-.18-.16.84.84 0 0 1-.12-.26c-.03-.1-.04-.22-.04-.34v-.15c0-.14.01-.26.04-.37.03-.1.07-.19.12-.25s.1-.13.18-.16a.46.46 0 0 1 .24-.06h.01c.09 0 .17.02.24.06.08.03.14.09.18.16.06.06.1.15.12.26.03.1.04.22.04.36z"/></symbol>
<symbol id="icon-group6" viewBox="0 0 25 32"><path d="M10.53 1.8h-.81l-.78.01h.04A17.4 17.4 0 0 0 2.5 3.46l-.27.13V17.2l.63-.2c2-.73 4.3-1.15 6.7-1.18v1.79l-.65.02h-.05c-3.1.17-5.97 1.03-8.5 2.42l.1-.05V2.52A17.87 17.87 0 0 1 5.14.62l.13-.04C6.62.22 8.17.01 9.77 0h.27a13 13 0 0 1 3.25.42L13.2.4v1.77c-.63-.16-1.37-.28-2.13-.33h-.09c-.15-.02-.3-.04-.45-.04zm3.1 1.8a18.92 18.92 0 0 0 6.09-.59l-.14.03a19.55 19.55 0 0 0 4.67-1.83l-.1.05v17.16a17.95 17.95 0 0 1-4.67 1.93l-.13.03c-1.47.37-2.99.57-4.5.57h-.11c-1.18 0-2.33-.14-3.42-.42l.1.02V3.27c.63.16 1.39.28 2.16.33h.05zm8.74.14-.62.21a20.67 20.67 0 0 1-8.1 1.14h.05l-.5-.02v14l.43.04a16.14 16.14 0 0 0 5.4-.5l-.1.03c1.21-.31 2.27-.7 3.27-1.2l-.1.05.27-.12V3.74zM1.69 25.98a.92.92 0 0 0-.66-.28H.99c-.13 0-.27.02-.4.07a.93.93 0 0 0-.58.9v2.35c0 .16.02.32.09.47a1 1 0 0 0 .23.31c.1.08.2.14.32.17s.24.05.35.05a.98.98 0 0 0 .97-.99v-.25h-.62v.2a.4.4 0 0 1-.03.2.38.38 0 0 1-.08.14.42.42 0 0 1-.26.09H.94a.3.3 0 0 1-.24-.12.55.55 0 0 1-.1-.3v-2.2c0-.12.03-.24.09-.34a.3.3 0 0 1 .3-.14c.11 0 .2.05.27.13.06.08.1.19.1.3v.21h.6v-.24c0-.29-.1-.54-.27-.74zm3.62-.03a1.08 1.08 0 0 0-1.06-.19.97.97 0 0 0-.32.19 1.02 1.02 0 0 0-.32.78v2.24c0 .16.02.31.08.46.06.12.14.23.24.3.1.1.2.17.32.21a1.06 1.06 0 0 0 .74 0h-.01a.96.96 0 0 0 .65-.9v-2.35a1 1 0 0 0-.32-.74zm-.28 3.02a.39.39 0 0 1-.13.32.45.45 0 0 1-.57 0 .4.4 0 0 1-.12-.29v-2.27a.39.39 0 0 1 .12-.32.45.45 0 0 1 .58 0 .4.4 0 0 1 .12.29v2.27zm5.04 1v-4.25h-.59l-.77 2.25-.78-2.25h-.58v4.24h.6v-2.58h.01l.6 1.83h.3l.6-1.83v2.58h.61zm3.44-3.94a.78.78 0 0 0-.34-.23 1.31 1.31 0 0 0-.42-.07h-.92v4.24h.6V28.3h.31c.2 0 .38-.03.55-.11.25-.16.42-.4.47-.7a2.92 2.92 0 0 0-.03-1.1v.02a.9.9 0 0 0-.22-.4zm-.3 1.3c-.01.07-.03.14-.07.2a.32.32 0 0 1-.15.16.6.6 0 0 1-.27.06H12.43V26.3h.3c.1 0 .2.01.28.06.07.03.12.08.15.15a.6.6 0 0 1 .05.23v.58zm3.16-1.6h-.5l-.92 4.24h.6l.18-.91h.82l.19.9h.6l-.96-4.23zm-.56 2.75.3-1.54h.01l.3 1.54h-.6zm4.47-.2h-.02l-.9-2.55h-.58v4.24h.6v-2.55h.01l.92 2.55h.56v-4.25h-.6v2.56zm3.69-2.55-.5 1.68-.5-1.68h-.62l.83 2.45v1.78h.6v-1.78l.83-2.45h-.64zM0 31.16h.29v.82h.2v-.82h.3V31h-.8v.16zM2.45 31l-.38.98h.2l.09-.22h.39l.08.22h.21L2.67 31h-.21zm-.03.6.13-.38.13.37h-.26zm2.44.02h.24v.12a.38.38 0 0 1-.24.09h-.02a.25.25 0 0 1-.19-.1.4.4 0 0 1-.07-.23v-.02c0-.22.1-.33.28-.33h.02c.1 0 .18.07.2.15l.2-.03c-.04-.2-.18-.3-.42-.3h-.02a.5.5 0 0 0-.32.13.48.48 0 0 0-.14.39c0 .13.03.26.12.36.09.1.21.15.35.15h.03a.6.6 0 0 0 .41-.16v-.39h-.43v.17zM7.33 31h-.2v.98h.7v-.16h-.5V31zm2.1 0h-.2v.98h.2V31zm2.04.66-.4-.66h-.2v.98h.19v-.64l.4.64h.19V31h-.19v.65zm1.85-.1h.49v-.18h-.5v-.22h.53V31h-.73v.98h.76v-.16h-.56v-.27zm4.47-.17h-.39v-.4h-.2v1h.2v-.44h.4v.43h.19V31h-.2v.38zm1.86.16h.5v-.17h-.5v-.22h.53V31h-.73v.98h.75v-.16h-.55v-.27zm2.52 0c.17-.03.25-.12.25-.28a.23.23 0 0 0-.09-.21.55.55 0 0 0-.25-.06H21.62v.98h.2v-.41h.04c.04 0 .08 0 .12.03.03.01.06.04.08.07l.21.3h.23l-.12-.18a.64.64 0 0 0-.21-.24zm-.2-.14h-.15v-.24h.16c.06 0 .14 0 .2.02.03.02.05.06.05.1 0 .04-.02.08-.06.1a.56.56 0 0 1-.17.03h-.03zm2.1.14h.49v-.17h-.5v-.22h.54V31h-.73v.98h.75v-.16h-.55v-.27z"/></symbol>
<symbol id="icon-astronaut" viewBox="0 0 32 32"><path fill="#4d5ae5" d="M31.98 4.53a.54.54 0 0 0-.43-.37l-1.91-.28-.86-1.72c-.18-.37-.78-.37-.96 0l-.85 1.73-1.92.27a.53.53 0 0 0-.29.91l1.38 1.35-.33 1.9v.1a.54.54 0 0 0 .78.46l1.71-.9 1.71.9c.07.04.15.06.24.06a.54.54 0 0 0 .53-.62l-.33-1.9 1.39-1.35a.53.53 0 0 0 .13-.55zM29.5 5.85a.54.54 0 0 0-.15.47l.19 1.11-1-.52a.53.53 0 0 0-.5 0l-1 .52.19-1.1v-.1a.54.54 0 0 0-.15-.38l-.8-.79 1.11-.16a.54.54 0 0 0 .4-.3l.5-1 .5 1c.08.16.23.27.4.3l1.12.16-.8.79zm-3.38 14.67h-1.06v1.07h1.07v-1.07zm0 2.14h-1.06v1.06h1.07v-1.06zm1.07-1.07h-1.06v1.06h1.06V21.6zm-2.13 0H24v1.06h1.06V21.6zm-2.67 4.8h-1.06v1.06h1.06V26.4zm0 2.13h-1.06v1.07h1.06v-1.06zm1.07-1.07H22.4v1.07h1.06v-1.07zM21.34 27.45h-1.07v1.07h1.07v-1.07zM16 24.25h-1.06v1.07H16v-1.07zm0 2.14h-1.06v1.06H16V26.4zm1.07-1.07H16v1.07h1.06v-1.06zm-2.13 0h-1.07v1.07h1.07v-1.06zM5.87 6.13H4.8V7.2h1.07V6.12zm0 2.14H4.8v1.06h1.07V8.26zm1.06-1.07H5.86v1.06h1.07V7.2zm-2.13 0H3.74v1.06H4.8V7.2z" style="fill:var(--color3, #4d5ae5)"/><path fill="#2e2f42" d="M24.71 14.16c-.28-.38-.7-.64-1.18-.7a1.77 1.77 0 0 0-1.34.35l-1.26.95-1.9 1.43-1.35-.54a6.95 6.95 0 0 0 4.12-6.32 6.95 6.95 0 0 0-6.95-6.94h-.02a6.95 6.95 0 0 0-6.96 6.93c0 1.39.42 2.68 1.12 3.76l-2.79-.02c-.06 0-.1.02-.16.04H6l-.02.02-3.23 1.59-1.9.91a1.78 1.78 0 0 0-.66 2.34v-.01c.22.43.6.74 1.05.89h.01a1.77 1.77 0 0 0 1.38-.13l1.39-.73 2.26-1.17 1.36-.01-6.79 6.75c-.3.3-.49.72-.49 1.17v.01c0 .92.75 1.66 1.67 1.66.43 0 .85-.16 1.18-.48l1.31-1.3 1.74-1.3.9.9-3.1 3.08c-.3.3-.49.71-.49 1.17v.01c0 .92.74 1.66 1.66 1.66h.01c.47 0 .88-.19 1.18-.49l1.34-1.33 3.16-3.13.01-.02 5.17-5.66 3.47.5h.07c.07 0 .13-.02.2-.04l.04-.03.06-.02 3.21-2.14c.02 0 .02-.02.03-.03.02 0 .03 0 .04-.02l1.28-1.2a1.78 1.78 0 0 0 .2-2.36zM2.14 17.77a.7.7 0 0 1-.56.05.72.72 0 0 1-.21-1.26l1.31-.63.32.92.13.39-.99.53zm3.5-1.82-1.55.8-.26-.75-.18-.54 2.02-1-.04 1.48zm15.1-6.63a5.8 5.8 0 0 1-.6 2.56l-4.18-1.9a1.86 1.86 0 0 0-.78-1.38h-.01l1.46-4.86c2.4.77 4.1 2.97 4.1 5.58zm-11.79 0a5.89 5.89 0 0 1 6.66-5.81h-.03l-1.43 4.75h-.05c-1.03 0-1.87.83-1.88 1.86 0 1.03.84 1.87 1.87 1.87h.01c.69 0 1.3-.38 1.61-.94l3.87 1.75A5.9 5.9 0 0 1 8.94 9.32zm5.95.8a.8.8 0 0 1-.8.8h-.01a.8.8 0 0 1-.8-.8c0-.44.36-.8.81-.8.44 0 .8.36.8.8zM2.47 25.15a.6.6 0 0 1-.85 0 .6.6 0 0 1 0-.84l.96-.96.85.85-.96.95zm3.21 3.74a.6.6 0 0 1-.85 0 .6.6 0 0 1 0-.85l.96-.96.85.85-.96.95zm3.48-3.48L7.4 27.18l-.85-.85 1.76-1.75c.04-.04.07-.09.09-.13l.03-.04c.01-.04.01-.09.03-.13v-.07a.32.32 0 0 0-.02-.1l-.01-.1a.5.5 0 0 0-.1-.15s0-.02-.02-.03l-1.6-1.6-.07-.04a.53.53 0 0 0-.08-.06.47.47 0 0 0-.1-.03.55.55 0 0 0-.1-.02h-.1a.55.55 0 0 0-.1.03.5.5 0 0 0-.1.04l-.05.03-1.78 1.32-.9-.9 2.4-2.38 4.36 4.29-.93.92zm6.82-7.01h-.05l-.11.01a.5.5 0 0 0-.19.07.51.51 0 0 0-.08.06l-.04.03-4.7 5.14-4.32-4.26 2.83-2.81a.54.54 0 0 0-.38-.91l-2.22.01.02-1.6 3.1.02a6.93 6.93 0 0 0 4.99 2.1c.44 0 .86-.05 1.28-.12l.13.08 2.4.96.16.76.18.88-3-.42zm4.04.18-.32-1.56 1.45-1.08.38.5.57.75-2.08 1.39zm3.75-2.83-.83.78-.94-1.24.83-.63a.73.73 0 0 1 .55-.15.72.72 0 0 1 .4 1.23z" style="fill:var(--color5, #2e2f42)"/><path fill="#2e2f42" d="m13.6 18.55-2.14-2.14a.53.53 0 0 0-.75 0l-2.15 2.14a.54.54 0 0 0 0 .75l2.15 2.14a.53.53 0 0 0 .75 0l2.14-2.14a.54.54 0 0 0 0-.75zm-2.51 1.75-1.4-1.38 1.4-1.38 1.38 1.38-1.39 1.38zm6.07-15.23L16.9 6.1c.08.03 1.74.46 1.74 2.16h1.07c0-2.02-1.67-2.97-2.55-3.19zm2.55 4.25h-1.07v1.07h1.07V9.32z" style="fill:var(--color5, #2e2f42)"/></symbol>
<symbol id="icon-schedule" viewBox="0 0 32 32"><path fill="#4d5ae5" d="M14.93 14.96h1.06v4.8h-1.06v-4.8zm4.26 2.13h1.06v2.67H19.2V17.1zm-8.53 1.6h1.06v1.07h-1.06V18.7zm-3.2-.53h1.07v1.6H7.47v-1.6z" style="fill:var(--color3, #4d5ae5)"/><path fill="#2e2f42" d="M1.6 28.29h25.59c.88 0 1.6-.72 1.6-1.6v-2.13c0-.88-.72-1.6-1.6-1.6h-.53V9.66l3.02-2.86a1.61 1.61 0 1 0-.75-.76L26.65 8.2V6.97c0-.88-.72-1.6-1.6-1.6H3.73c-.88 0-1.6.72-1.6 1.6v15.99H1.6c-.88 0-1.6.72-1.6 1.6v2.13c0 .88.72 1.6 1.6 1.6zM30.39 4.84a.54.54 0 1 1 0 1.06.54.54 0 0 1 0-1.07zM3.2 6.97c0-.3.23-.54.53-.54h21.32c.3 0 .53.24.53.54V9.2l-1.06 1V8.04c0-.3-.24-.54-.53-.54H4.8c-.3 0-.54.24-.54.54v13.32c0 .3.24.54.53.54H24c.29 0 .53-.24.53-.54v-9.67l1.06-1v12.28H3.2V6.97zM8 13.9h-.01a1.6 1.6 0 1 0 1.11 2.75l1.86.93c.21.1.47.06.63-.12l3.94-4.44 3.88 2.9c.2.16.5.15.68-.03l3.37-3.2v8.14H5.33V8.57h18.13v2.66l-3.77 3.57-3.9-2.93a.53.53 0 0 0-.73.07l-3.99 4.5-1.5-.75a.83.83 0 0 0 .03-.19c0-.88-.72-1.6-1.6-1.6zm.53 1.6v.05a.54.54 0 1 1-1.06-.05.54.54 0 0 1 1.06 0zm3.2 8.52h5.32v.54c0 .3-.23.54-.53.54h-4.26a.54.54 0 0 1-.54-.54v-.54zm-10.67.54c0-.3.24-.54.54-.54h9.06v.54c0 .88.71 1.6 1.6 1.6h4.26c.88 0 1.6-.72 1.6-1.6v-.54h9.06c.3 0 .54.24.54.54v2.13c0 .3-.24.53-.54.53H1.6a.54.54 0 0 1-.53-.53v-2.13z" style="fill:var(--color5, #2e2f42)"/></symbol>
<symbol id="icon-clock" viewBox="0 0 31 32"><path d="M30.8 15.3a15.3 15.3 0 0 0-30.61 0c0 6.8 4.42 12.55 10.54 14.55l.1.03c.07.02.13.03.2.03h.01c.29 0 .53-.19.61-.45l3.87-12.25a1.91 1.91 0 1 0-.86-3.63h.02l-5.1-5.11a.64.64 0 0 0-.9.9l5.1 5.1a1.87 1.87 0 0 0 .53 2.3v.02l-3.68 11.67a14.04 14.04 0 1 1 18-8.23l.02-.1c-1.34 3.59-4 6.41-7.36 7.95l-.09.03-.4-1.87a.64.64 0 0 0-1.05-.35l-3.83 3.43a.63.63 0 0 0 .22 1.08l4.9 1.57a.64.64 0 0 0 .83-.75l-.4-1.83a15.28 15.28 0 0 0 9.33-14.06v-.04zm-15.31-.64h.06a.64.64 0 1 1-.06 1.28.64.64 0 0 1 0-1.27zm2.1 14.87 2.19-1.95.6 2.84-2.78-.89z"/></symbol>
<symbol id="icon-antenna" viewBox="0 0 32 32"><path fill="#2e2f42" d="m30.77 22.1-8.44-8.51.94-4.61c.24.1.5.15.75.15h.04a2.16 2.16 0 1 0-2.03-1.43v-.01l-4.97.6L8.97.16A.53.53 0 0 0 8.6 0a.53.53 0 0 0-.38.16l-1.5 1.5a.53.53 0 0 0 0 .76l.81.82a14.9 14.9 0 0 0 2.52 17.66c.04.05.09.08.14.1-.03.17-.05.36-.05.55v6.19h-6.4a2.67 2.67 0 0 0-2.67 2.66v1.07c0 .3.24.53.53.53h24.54c.3 0 .53-.24.53-.54V30.4c0-1.47-1.2-2.66-2.67-2.67h-6.4V25a14.86 14.86 0 0 0 10.16-1.5l-.08.04.82.82a.53.53 0 0 0 .75.01l1.52-1.51a.53.53 0 0 0 0-.75zM23.28 6.23a1.07 1.07 0 1 1 .75 1.82 1.07 1.07 0 0 1-.75-1.82zm-1.26 3.5-.6 2.95-1.17-1.18 1.77-1.76zm-.6-.9-1.92 1.92-1.49-1.5 3.4-.41zM24 28.8c.88 0 1.6.72 1.6 1.6v.54H2.14v-.54c0-.88.71-1.6 1.6-1.6H24zm-7.46-2.14v1.07H11.2v-1.07h5.33zM11.2 25.6v-4.05c0-1.3 1.2-2.35 2.67-2.35 1.46 0 2.66 1.05 2.66 2.35v4.05H11.2zm6.4-1.7v-2.35c0-1.89-1.68-3.42-3.73-3.42h-.06a3.8 3.8 0 0 0-3.22 1.77v.02A13.82 13.82 0 0 1 8.34 3.96l-.03.08 18.6 18.7a13.64 13.64 0 0 1-9.4 1.15l.09.02zm11.29-.68L7.83 2.04l.76-.75 21.06 21.18-.75.75z" style="fill:var(--color5, #2e2f42)"/><path fill="#4d5ae5" d="M13.88 20.27h-.01a1.6 1.6 0 0 0 0 3.2 1.6 1.6 0 0 0 0-3.2zm.37 1.98c-.1.09-.23.15-.38.15a.54.54 0 0 1-.53-.53c0-.3.24-.53.53-.54a.53.53 0 0 1 .37.91z" style="fill:var(--color3, #4d5ae5)"/></symbol>
</defs></svg>