<svg xmlns="http://www.w3.org/2000/svg" aria-hidden="true" style="position:absolute;width:0;height:0;overflow:hidden">
<defs>
<symbol id="icon-antenna" viewBox="0 0 32 32"><path fill="#2e2f42" d="m30.77 22.1-8.44-8.5.94-4.62c.24.1.5.14.76.14h.03a2.16 2.16 0 1 0-2.03-1.42V7.7l-4.97.6L8.97.16A.53.53 0 0 0 8.6 0a.54.54 0 0 0-.38.15l-1.5 1.5a.53.53 0 0 0 0 .76l.8.83a14.9 14.9 0 0 0 2.52 17.66l.15.1c-.03.16-.05.35-.05.55v6.18h-6.4a2.67 2.67 0 0 0-2.67 2.67v1.07c0 .3.24.53.54.53h24.53c.3 0 .53-.24.53-.53V30.4c0-1.47-1.2-2.67-2.66-2.67h-6.4V25a14.78 14.78 0 0 0 10.17-1.5l-.08.04.81.82a.53.53 0 0 0 .75 0l1.52-1.5a.53.53 0 0 0 0-.75zM23.28 6.23c.2-.19.46-.3.75-.3a1.07 1.07 0 0 1 0 2.13 1.07 1.07 0 0 1-.75-1.83zm-1.26 3.5-.6 2.95-1.17-1.18 1.77-1.76zm-.6-.9-1.92 1.92L18 9.25l3.4-.41zM24 28.8c.89 0 1.6.72 1.6 1.6v.53H2.14v-.53c0-.88.71-1.6 1.6-1.6H24zm-7.46-2.13v1.06H11.2v-1.06h5.34zM11.2 25.6v-4.05c0-1.3 1.2-2.35 2.67-2.35s2.67 1.05 2.67 2.35v4.05H11.2zm6.4-1.7v-2.35c0-1.89-1.67-3.42-3.73-3.42h-.06a3.8 3.8 0 0 0-3.21 1.78l-.01.01A13.82 13.82 0 0 1 8.35 3.96l-.04.08 18.6 18.7a13.64 13.64 0 0 1-9.4 1.15l.1.02zm11.3-.68L7.83 2.04l.75-.75 7.94 7.98 13.12 13.2-.76.75z" style="fill:var(--color1, #2e2f42)"/><path fill="#4d5ae5" d="M13.88 20.27h-.01a1.6 1.6 0 0 0 0 3.2 1.6 1.6 0 0 0 0-3.2zm.37 1.98c-.1.1-.23.15-.38.15a.53.53 0 0 1 0-1.07.53.53 0 0 1 .37.92z" style="fill:var(--color2, #4d5ae5)"/></symbol>
<symbol id="icon-clock" viewBox="0 0 31 32"><path d="M30.8 15.3a15.3 15.3 0 1 0-20.07 14.55l.1.03a.67.67 0 0 0 .53-.06c.14-.08.24-.2.29-.36l3.87-12.25a1.91 1.91 0 1 0-.86-3.63h.02l-5.11-5.1a.64.64 0 1 0-.9.9l5.1 5.1a1.87 1.87 0 0 0 .53 2.3v.01l-3.68 11.67a14.04 14.04 0 1 1 10.66-.38l-.09.03-.4-1.87a.64.64 0 0 0-1.04-.34l-3.84 3.42a.64.64 0 0 0 .23 1.08l4.9 1.57a.64.64 0 0 0 .82-.74l-.4-1.84a15.29 15.29 0 0 0 9.34-14.06v-.03zm-15.3-.64a.64.64 0 0 1 0 1.28.64.64 0 0 1 0-1.28zm2.1 14.87 2.18-1.95.6 2.84-2.79-.9z"/></symbol>
<symbol id="icon-schedule" viewBox="0 0 32 32"><path fill="#4d5ae5" d="M14.93 14.96h1.06v4.8h-1.06v-4.8zm4.26 2.14h1.07v2.66h-1.07V17.1zm-8.53 1.6h1.07v1.06h-1.07V18.7zm-3.2-.54h1.07v1.6H7.46v-1.6z" style="fill:var(--color2, #4d5ae5)"/><path fill="#2e2f42" d="M1.6 28.3h25.59c.88 0 1.6-.73 1.6-1.6v-2.14c0-.88-.72-1.6-1.6-1.6h-.54V9.66l3.03-2.86a1.6 1.6 0 1 0-.74-.75v-.01L26.64 8.2V6.97c0-.88-.71-1.6-1.6-1.6H3.73c-.88 0-1.6.72-1.6 1.6v16H1.6c-.89 0-1.6.7-1.6 1.59v2.13c0 .89.71 1.6 1.6 1.6zM30.38 4.83a.53.53 0 0 1 0 1.06.53.53 0 0 1 0-1.06zM3.2 6.97c0-.3.24-.53.53-.53h21.32c.3 0 .54.23.54.53V9.2l-1.07 1.01V8.03c0-.29-.24-.53-.53-.53H4.79c-.29 0-.53.24-.53.53v13.33c0 .3.24.54.54.54h19.19c.3 0 .53-.24.53-.54V11.7l1.07-1.01v12.28H3.19v-16zM8 13.9a1.6 1.6 0 1 0 1.1 2.75l1.86.93c.21.1.47.05.63-.13l3.94-4.43 3.87 2.9c.21.16.5.14.69-.04l3.36-3.18v8.13H5.33V8.57h18.12v2.66l-3.77 3.57-3.9-2.93a.53.53 0 0 0-.72.07l-4 4.5-1.49-.75c.02-.06.02-.13.03-.2 0-.88-.72-1.6-1.6-1.6zm.53 1.6a.53.53 0 0 1-1.07 0 .53.53 0 0 1 1.07 0zm3.2 8.53h5.33v.53c0 .3-.24.53-.53.53h-4.27a.53.53 0 0 1-.53-.53v-.53zm-10.66.53c0-.3.24-.53.53-.53h9.06v.53c0 .88.72 1.6 1.6 1.6h4.26c.89 0 1.6-.72 1.6-1.6v-.53h9.06c.3 0 .54.23.54.53v2.13c0 .3-.24.53-.54.53H1.6a.53.53 0 0 1-.53-.53v-2.13z" style="fill:var(--color1, #2e2f42)"/></symbol>
<symbol id="icon-astronaut" viewBox="0 0 32 32"><path fill="#4d5ae5" d="M31.97 4.52a.54.54 0 0 0-.42-.36l-1.92-.28-.85-1.73c-.18-.36-.78-.36-.96 0l-.85 1.73-1.91.28a.53.53 0 0 0-.3.91l1.38 1.35-.32 1.9v.09a.53.53 0 0 0 .78.47l1.7-.9 1.71.9a.53.53 0 0 0 .77-.57v.01l-.32-1.9 1.38-1.35a.53.53 0 0 0 .13-.55zm-2.46 1.33a.53.53 0 0 0-.15.47l.19 1.12-1-.53a.52.52 0 0 0-.5 0l-1 .53.2-1.12a.53.53 0 0 0-.15-.47l-.82-.79 1.12-.16a.53.53 0 0 0 .4-.3l.5-1 .5 1c.08.16.23.27.4.3l1.12.16-.8.8zm-3.38 14.67h-1.06v1.07h1.06v-1.07zm0 2.14h-1.06v1.06h1.06v-1.06zM27.2 21.59h-1.07v1.07h1.07v-1.07zm-2.13 0H24v1.07h1.07v-1.07zm-2.67 4.8h-1.07v1.07h1.07v-1.07zm0 2.13h-1.07v1.07h1.07v-1.07zm1.07-1.06H22.4v1.06h1.07v-1.06zM21.33 27.46h-1.06v1.06h1.06v-1.06zM16 24.26h-1.07v1.06H16v-1.06zm0 2.13h-1.07v1.07H16v-1.07zm1.07-1.07H16v1.07h1.07v-1.07zm-2.14 0h-1.06v1.07h1.06v-1.07zM5.87 6.12H4.8V7.2h1.07V6.12zm0 2.14H4.8v1.06h1.07V8.26zm1.06-1.07H5.87v1.07h1.06V7.19zm-2.13 0H3.73v1.07H4.8V7.19z" style="fill:var(--color2, #4d5ae5)"/><path fill="#2e2f42" d="M24.71 14.16c-.28-.38-.7-.64-1.17-.7h-.01a1.76 1.76 0 0 0-1.34.36v-.01l-1.26.96-1.9 1.41-1.35-.54A6.94 6.94 0 0 0 14.83 2.4a6.96 6.96 0 0 0-6.96 6.93c0 1.39.41 2.68 1.12 3.76l-2.77-.02H6.2a.5.5 0 0 0-.16.03l-.04.02H6l-3.24 1.6-1.9.91a1.78 1.78 0 0 0-.66 2.34 1.78 1.78 0 0 0 2.45.75l1.38-.74 2.26-1.16 1.36-.01L2.2 22.2.86 23.55c-.3.3-.5.71-.5 1.17a1.67 1.67 0 0 0 2.85 1.18l1.32-1.3 1.74-1.3.9.9-3.1 3.08a1.66 1.66 0 0 0 1.18 2.84c.46 0 .88-.18 1.18-.48l3.48-3.47 1.01-1 .02-.02 5.17-5.66 3.47.5h.07c.07 0 .13-.01.2-.04h-.01l.05-.02.06-.03 3.21-2.13.03-.03.04-.02 1.27-1.2a1.78 1.78 0 0 0 .21-2.36zM2.14 17.77a.71.71 0 0 1-.56.05.72.72 0 0 1-.21-1.26l1.31-.63.32.93.13.38-1 .53zm3.5-1.83-1.55.8-.26-.74-.18-.54 2.03-1-.04 1.48zm15.1-6.62c0 .92-.22 1.79-.6 2.56l-4.18-1.9a1.86 1.86 0 0 0-.79-1.38l1.46-4.87a5.88 5.88 0 0 1 4.1 5.6zm-11.8 0a5.89 5.89 0 0 1 6.65-5.81l-1.44 4.75h-.05c-1.04 0-1.87.83-1.88 1.86 0 1.03.84 1.87 1.88 1.87.69 0 1.29-.38 1.61-.94l3.87 1.75A5.9 5.9 0 0 1 8.94 9.32zm5.96.8a.8.8 0 0 1-1.61 0c0-.44.36-.8.8-.8s.81.36.81.8zM2.46 25.15a.6.6 0 0 1-.85 0 .6.6 0 0 1 0-.85l.96-.96.85.85-.95.96zm3.22 3.73a.6.6 0 0 1-.86 0 .6.6 0 0 1 0-.84l.97-.96.85.85-.96.95zm3.48-3.47-1.77 1.76-.85-.85 1.77-1.75c.04-.04.06-.1.09-.14l.02-.04c.02-.04.02-.08.03-.13l.01-.07c0-.04 0-.07-.02-.1l-.01-.1a.51.51 0 0 0-.1-.14l-.02-.04-1.61-1.6-.06-.04a.5.5 0 0 0-.08-.05.48.48 0 0 0-.1-.04.5.5 0 0 0-.1-.02h-.02l-.08.01a.59.59 0 0 0-.1.02.5.5 0 0 0-.1.05l-.05.02-1.78 1.33-.9-.9 2.4-2.39 4.36 4.3-.93.91zm6.82-7.02h-.07l-.1.01a.5.5 0 0 0-.18.07.48.48 0 0 0-.08.06l-.04.03-4.7 5.15-4.33-4.26 2.84-2.82a.53.53 0 0 0-.38-.9H6.72l.03-1.6 3.1.03a6.93 6.93 0 0 0 4.98 2.1 7 7 0 0 0 1.28-.13c.04.04.08.07.13.09l2.4.96.16.76.18.88-3-.42zm4.04.18-.31-1.55 1.44-1.08.95 1.25-2.08 1.38zm3.75-2.83-.83.79-.94-1.24.84-.64a.72.72 0 0 1 .94 1.09z" style="fill:var(--color1, #2e2f42)"/><path fill="#2e2f42" d="m13.6 18.54-2.14-2.13a.53.53 0 0 0-.75 0l-2.15 2.13a.53.53 0 0 0 0 .76l2.15 2.13a.53.53 0 0 0 .75 0l2.14-2.13a.53.53 0 0 0 0-.76zm-2.52 1.76L9.7 18.92l1.38-1.38 1.39 1.38-1.39 1.38zm6.08-15.23-.25 1.04c.07.01 1.73.45 1.73 2.14h1.07c0-2.01-1.66-2.96-2.54-3.18zm2.55 4.25h-1.07v1.07h1.07V9.32z" style="fill:var(--color1, #2e2f42)"/></symbol></defs></svg>