<svg xmlns="http://www.w3.org/2000/svg" aria-hidden="true" style="position:absolute;width:0;height:0;overflow:hidden"><defs><symbol id="icon-Facebook2" viewBox="0 0 32 32"><path fill="#fff" d="M32 16c0 4.42-1.8 8.42-4.69 11.31a15.96 15.96 0 0 1-22.62 0 15.95 15.95 0 0 1 0-22.63C7.59 1.8 11.59 0 16 0c4.42 0 8.42 1.8 11.31 4.69S32 11.59 32 16z" opacity=".1" style="fill:var(--color1, #fff)"/><path fill="#f4f4fd" d="M19.2 9.59h1.75V6.53c-.3-.04-1.34-.13-2.55-.13-2.53 0-4.26 1.59-4.26 4.51v2.69h-2.79v3.41h2.79v8.59h3.42v-8.59h2.67l.43-3.4h-3.1v-2.36c0-.99.26-1.66 1.64-1.66z" style="fill:var(--color2, #f4f4fd)"/></symbol><symbol id="icon-Facebook" viewBox="0 0 32 32"><path fill="#4d5ae5" d="M32 16c0 4.42-1.8 8.42-4.69 11.31a15.96 15.96 0 0 1-22.62 0 15.95 15.95 0 0 1 0-22.63C7.59 1.8 11.59 0 16 0c4.42 0 8.42 1.8 11.31 4.69S32 11.59 32 16z" style="fill:var(--color3, #4d5ae5)"/><path fill="#f4f4fd" d="M18.13 11.72h1.17V9.7c-.2-.03-.9-.09-1.7-.09-1.69 0-2.84 1.06-2.84 3v1.8H12.9v2.27h1.86v5.73h2.28v-5.72h1.78l.29-2.28h-2.07v-1.57c0-.65.18-1.1 1.1-1.1z" style="fill:var(--color2, #f4f4fd)"/></symbol><symbol id="icon-group-1" viewBox="0 0 32 32"><path fill="#8e8f99" d="m6.13 0 4.77 4.55H2.04v22.04H25.2v-8.43l4.77 4.54V0H6.13zm18.85 17.63L11.45 4.74h13.53v12.89zm-4.2 5.74H5.71V8.54h1.06v13.82h14.01v1zM8.71 30.68l-.56-1.16h-.46l.81 1.53v.9h.42v-.9l.82-1.52h-.47l-.56 1.15zm2.07-1.16h.1l.92 2.42h-.44l-.2-.56h-.94l-.19.57h-.44l.91-2.42h.28zm-.44 1.53h.7l-.35-1.03-.35 1.03zm2.92-.4-.05-.07a1.27 1.27 0 0 1-.14-.24.65.65 0 0 1 .03-.57c.04-.09.12-.16.21-.2a.7.7 0 0 1 .34-.08c.12 0 .23.03.31.08.1.04.16.11.21.19a.5.5 0 0 1 .07.27c0 .07-.01.14-.04.2s-.07.13-.11.18l-.17.15-.17.12.48.56a.97.97 0 0 0 .1-.45h.35c0 .12-.01.23-.04.34a1.04 1.04 0 0 1-.17.4l.35.41h-.46l-.14-.16a.95.95 0 0 1-.25.13 1.1 1.1 0 0 1-.8-.02.67.67 0 0 1-.27-.24.67.67 0 0 1-.1-.36c0-.1.03-.18.07-.26a.8.8 0 0 1 .17-.2l.22-.18zm.2.24-.05.03-.13.14a.4.4 0 0 0-.02.41c.03.06.07.1.13.14.06.03.14.05.22.05a.62.62 0 0 0 .4-.14l-.55-.63zm.1-.44.15-.1c.07-.05.12-.1.15-.14a.3.3 0 0 0 .04-.17c0-.06-.02-.11-.07-.16s-.1-.07-.18-.07a.25.25 0 0 0-.23.14.34.34 0 0 0-.03.14c0 .05.01.1.04.16a1 1 0 0 0 .13.2zm4.23.7h-.41c-.02.11-.04.2-.08.28a.38.38 0 0 1-.17.16.63.63 0 0 1-.28.06c-.1 0-.19-.02-.26-.06s-.12-.1-.17-.17a.82.82 0 0 1-.1-.25c-.02-.1-.03-.21-.03-.33v-.2c0-.14.01-.25.03-.35.03-.1.06-.18.11-.25s.1-.12.18-.16a.56.56 0 0 1 .25-.05c.11 0 .21.02.28.06.07.04.13.1.16.17.04.07.07.16.08.27h.41c-.01-.17-.06-.3-.13-.43s-.18-.23-.31-.3-.3-.1-.49-.1c-.15 0-.29.02-.41.08a.86.86 0 0 0-.31.23c-.09.1-.16.22-.2.36-.05.14-.07.3-.07.47v.2c0 .18.02.33.07.47.04.14.1.26.2.36.08.1.18.18.3.23.12.06.25.08.4.08.2 0 .36-.03.5-.1s.24-.17.32-.3a.96.96 0 0 0 .13-.42zm2.31-.35v-.13c0-.19-.02-.35-.07-.5a1.08 1.08 0 0 0-.2-.36.87.87 0 0 0-.32-.24 1 1 0 0 0-.41-.08 1 1 0 0 0-.4.08.88.88 0 0 0-.32.24c-.1.1-.16.22-.21.37-.05.14-.07.3-.07.49v.13c0 .18.02.35.07.5.05.14.12.26.2.36s.2.18.32.24c.13.05.26.08.41.08.15 0 .29-.03.41-.08a.88.88 0 0 0 .32-.24c.09-.1.15-.22.2-.37s.07-.3.07-.49zm-.42-.14v.14c0 .14 0 .26-.04.36-.02.1-.06.2-.1.26a.5.5 0 0 1-.44.22.56.56 0 0 1-.25-.06.53.53 0 0 1-.18-.16c-.05-.07-.1-.16-.12-.26s-.04-.22-.04-.36v-.14c0-.13.02-.25.04-.35.03-.1.07-.2.12-.26a.5.5 0 0 1 .43-.22c.09 0 .17.02.24.06.08.03.14.09.19.16.05.07.09.15.11.26.03.1.04.22.04.35z" style="fill:var(--color4, #8e8f99)"/></symbol><symbol id="icon-group-2" viewBox="0 0 32 32"><path fill="#8e8f99" d="M4.95 30.34a.1.1 0 0 1 .06.03l.17.15c-.13.12-.28.22-.46.29-.2.07-.42.1-.64.1-.2 0-.4-.03-.6-.1a1.21 1.21 0 0 1-.75-.69c-.07-.17-.1-.35-.1-.53a1.26 1.26 0 0 1 .42-.96c.14-.12.3-.21.49-.28a1.93 1.93 0 0 1 1.2 0c.15.05.3.14.42.24l-.13.16-.04.03a.1.1 0 0 1-.05 0h-.06l-.07-.05-.1-.06a1.15 1.15 0 0 0-.32-.1 1.47 1.47 0 0 0-.68.06c-.13.05-.25.12-.35.2-.1.1-.18.2-.23.33-.05.14-.08.28-.08.42 0 .15.03.3.08.44.05.11.13.22.23.32.09.08.2.15.33.2a1.82 1.82 0 0 0 .66.05.98.98 0 0 0 .53-.22.12.12 0 0 1 .07-.03zM9.59 29.59c0 .18-.03.36-.1.53-.07.15-.18.3-.31.41s-.3.21-.47.28c-.4.12-.83.12-1.23 0a1.42 1.42 0 0 1-.47-.28 1.2 1.2 0 0 1-.3-.42 1.37 1.37 0 0 1 0-1.07c.07-.15.17-.3.3-.42.14-.11.3-.2.48-.26.39-.13.82-.13 1.22 0 .17.06.34.16.47.27a1.23 1.23 0 0 1 .41.95zm-.42 0c0-.15-.03-.3-.08-.43a.88.88 0 0 0-.55-.53c-.29-.09-.6-.09-.89 0a.96.96 0 0 0-.34.2c-.1.1-.17.2-.22.33-.1.28-.1.57 0 .85.05.12.12.23.22.33.1.08.21.15.34.2.29.09.6.09.89 0a.95.95 0 0 0 .34-.2c.1-.1.17-.2.21-.32.06-.14.08-.29.08-.43zM12.75 30.04l.05.1.04-.1a.86.86 0 0 1 .05-.1l1.03-1.6c.02-.02.04-.04.06-.04a.3.3 0 0 1 .08-.01h.3v2.6h-.35V28.8l-1.04 1.62c0 .02-.03.05-.06.06l-.08.02h-.06c-.03 0-.06 0-.09-.02l-.06-.06-1.06-1.62v2.07h-.35V28.3h.3a.3.3 0 0 1 .09.01l.05.05 1.05 1.6c.02.02.04.05.05.09zM16.61 29.9v.98h-.4v-2.59h.9c.17 0 .33.02.5.06a1 1 0 0 1 .35.16c.09.07.16.15.2.25.05.1.07.22.07.33a.72.72 0 0 1-.3.6c-.1.07-.22.13-.35.16a1.7 1.7 0 0 1-.48.06h-.49zm0-.27h.49c.1 0 .21-.01.31-.04a.7.7 0 0 0 .23-.11c.06-.05.1-.1.13-.17a.49.49 0 0 0 .05-.22c0-.07 0-.15-.04-.21s-.08-.13-.14-.18a.87.87 0 0 0-.54-.14h-.48v1.07zM22.01 30.88h-.32c-.03 0-.06 0-.08-.02a.16.16 0 0 1-.06-.06l-.27-.63h-1.37l-.28.63a.15.15 0 0 1-.14.08h-.32l1.2-2.6h.42l1.22 2.6zm-1.99-.96h1.14l-.48-1.06a1.56 1.56 0 0 1-.1-.24l-.04.14-.04.1-.48 1.06zM23.75 28.3l.06.05 1.75 1.95V28.3h.36v2.6h-.2a.2.2 0 0 1-.08-.02.2.2 0 0 1-.07-.05l-1.75-1.95V30.88h-.36v-2.6h.21a.2.2 0 0 1 .08.02zM28.88 29.85v1.03h-.4v-1.03l-1.11-1.56h.36c.03 0 .06 0 .08.02l.06.06.7 1a1.52 1.52 0 0 1 .11.24l.06-.11a.92.92 0 0 1 .06-.12l.69-1.02a.27.27 0 0 1 .05-.05.14.14 0 0 1 .09-.03h.36l-1.11 1.57zM12.55 23.94l.53.05c2.71-1.04 5-2.73 6.6-4.87s2.4-4.64 2.33-7.18L19.03 9.4c.6 2.7.32 5.5-.82 8.06s-3.1 4.82-5.66 6.49z" style="fill:var(--color4, #8e8f99)"/><path fill="#8e8f99" d="m11.49 23.82.08.02c2.73-1.67 4.8-4 5.97-6.69s1.35-5.6.55-8.39l-4.25-3.63c1.72 2.99 2.41 6.33 2 9.64s-1.93 6.45-4.35 9.05zM25.9 14.94a13.06 13.06 0 0 1-5 7.16c-.73.55-1.53 1.04-2.37 1.46 2.06-.52 3.95-1.43 5.52-2.67s2.8-2.77 3.58-4.48l-1.72-1.47z" style="fill:var(--color4, #8e8f99)"/><path fill="#8e8f99" d="m25.23 14.53-2.45-2.1c-.05 2.4-.85 4.73-2.3 6.77s-3.54 3.7-6.02 4.83h.02c.55 0 1.1-.03 1.64-.08 2.31-.8 4.36-2.09 5.94-3.73s2.68-3.6 3.17-5.7zM11.84 3.6 8.91 1.1c-2.61.86-4.87 2.38-6.46 4.35S.01 9.77 0 12.17c.01 2.65 1.05 5.22 2.97 7.3s4.58 3.57 7.6 4.21c2.68-2.8 4.25-6.25 4.48-9.86s-.9-7.2-3.2-10.22zM32 14.14C31.99 11 30.52 8 27.92 5.76s-6.13-3.47-9.8-3.48c-1.7 0-3.4.27-4.98.79l17.93 15.32c.62-1.35.93-2.8.93-4.25z" style="fill:var(--color4, #8e8f99)"/></symbol><symbol id="icon-group-3" viewBox="0 0 32 32"><path fill="#8e8f99" d="M4.98 12.96c-.9 0-1.65.66-1.65 1.48s.74 1.49 1.65 1.49c.91 0 1.65-.67 1.65-1.49s-.74-1.48-1.65-1.48zM17.13 12.48c0-1.13-.5-2.22-1.4-3.03s-2.1-1.26-3.36-1.26c-1.27 0-2.48.46-3.37 1.26s-1.4 1.9-1.4 3.03v6.28s9.53-.96 9.53-6.28zM0 20.82c0 .8.35 1.55.97 2.11s1.47.88 2.34.88c.88 0 1.72-.32 2.34-.88s.97-1.32.98-2.1v-4.37S0 17.12 0 20.82zm3.31.78c-.17 0-.34-.04-.48-.13s-.25-.2-.32-.35-.08-.3-.05-.45c.04-.15.12-.3.24-.4s.28-.19.44-.22c.17-.03.35-.01.5.05s.3.16.4.29a.73.73 0 0 1-.11.99.96.96 0 0 1-.62.23zM9.38 20.2v1.62h-.34V20.2h.34zm.64.69v.26h-.74v-.26h.74zm.08-.7v.27h-.82v-.26h.82zm1.53.78v.08c0 .12-.02.23-.05.33a.66.66 0 0 1-.36.4.7.7 0 0 1-.28.06c-.1 0-.2-.01-.28-.05s-.16-.09-.22-.16-.11-.15-.14-.25-.05-.2-.05-.33v-.08a.83.83 0 0 1 .2-.58c.05-.07.12-.13.2-.16s.18-.06.29-.06c.1 0 .2.02.28.06s.15.09.21.16c.07.07.11.15.15.25s.05.2.05.33zm-.34.08v-.08c0-.09 0-.16-.02-.23s-.04-.12-.07-.16-.07-.08-.11-.1c-.05-.03-.1-.04-.15-.04s-.11.01-.15.04c-.05.02-.08.05-.11.1l-.07.16a.97.97 0 0 0-.03.23v.08c0 .08.01.16.03.23s.04.12.07.16c.03.05.06.08.1.1a.35.35 0 0 0 .31 0 .29.29 0 0 0 .11-.1c.03-.04.05-.1.07-.16s.02-.15.02-.23zm1.43.35c0-.03 0-.06-.02-.08l-.04-.07-.1-.06-.16-.06-.21-.08a1.04 1.04 0 0 1-.18-.1c-.05-.04-.09-.09-.12-.14s-.04-.11-.04-.18c0-.07.02-.13.05-.19s.07-.1.12-.14l.2-.1a.65.65 0 0 1 .23-.03c.12 0 .23.03.32.07a.48.48 0 0 1 .28.43h-.33c0-.04-.01-.09-.03-.12s-.05-.07-.09-.09a.32.32 0 0 0-.15-.03c-.06 0-.1.01-.15.03s-.06.04-.08.07a.18.18 0 0 0-.03.1c0 .02 0 .05.02.07l.06.06.1.06.14.05.24.09a.6.6 0 0 1 .17.11l.1.14c.02.04.03.12.03.18 0 .08-.01.14-.04.2s-.06.1-.12.14c-.05.04-.11.06-.18.08a.9.9 0 0 1-.48 0 .71.71 0 0 1-.22-.1c-.06-.04-.1-.1-.15-.16s-.05-.14-.05-.24h.33l.02.13a.2.2 0 0 0 .07.09l.1.04.14.02c.05 0 .1-.01.14-.03s.07-.04.08-.06a.18.18 0 0 0 .03-.1zM14 20.2v1.62h-.34V20.2h.34zm.5 0v.26h-1.33v-.26h1.33zm1.28 1.36v.26h-.87v-.26h.87zm-.76-1.36v1.62h-.33V20.2h.33zm.64.66v.25h-.75v-.25h.75zm.12-.66v.26h-.87v-.26h.87zm.2 0h.6c.12 0 .23.02.32.05s.16.1.2.17a.55.55 0 0 1 .03.49.43.43 0 0 1-.12.15.63.63 0 0 1-.19.1l-.1.06h-.53v-.26h.4c.05 0 .1-.01.14-.03s.06-.05.08-.09a.27.27 0 0 0 .03-.13c0-.05 0-.1-.03-.13s-.04-.07-.08-.1-.1-.02-.15-.02h-.27v1.36h-.34V20.2zm.9 1.62-.37-.72h.35l.38.7v.02h-.36zm1.76-.58h-.42v-.26h.42c.06 0 .11 0 .15-.03s.07-.05.1-.09l.02-.13c0-.05 0-.09-.03-.13-.02-.04-.05-.08-.09-.1s-.09-.04-.15-.04h-.3v1.36h-.34V20.2h.64c.13 0 .23.02.33.07s.16.1.2.19c.05.08.08.17.08.27s-.03.2-.07.27-.12.14-.21.18c-.1.04-.2.06-.33.06zm1.93.32v.26h-.87v-.26h.87zm-.76-1.36v1.62h-.33V20.2h.33zm.65.66v.25h-.76v-.25h.76zm.1-.66v.26h-.86v-.26h.87zm.95 0v1.62h-.33V20.2h.33zm.5 0v.26H20.7v-.26h1.32zm1.29 1.36v.26h-.87v-.26h.86zm-.76-1.36v1.62h-.34V20.2h.34zm.64.66v.25h-.75v-.25h.75zm.11-.66v.26h-.86v-.26h.86zm.2 0h.6c.13 0 .24.02.33.05s.16.1.2.17c.05.07.08.16.08.27 0 .08-.02.16-.05.22s-.07.11-.12.15a.63.63 0 0 1-.19.1l-.1.06h-.53v-.26h.39c.06 0 .1-.01.14-.03s.07-.05.1-.09a.27.27 0 0 0 .02-.13c0-.05 0-.1-.03-.13s-.05-.07-.08-.1a.32.32 0 0 0-.15-.02h-.27v1.36h-.34V20.2zm.9 1.62-.36-.72h.35l.38.7v.02h-.36zm1.41-.42-.01-.08a.2.2 0 0 0-.05-.07l-.1-.06-.16-.06-.2-.08a1.04 1.04 0 0 1-.18-.1c-.05-.04-.1-.09-.12-.14s-.04-.11-.04-.18c0-.07.01-.13.04-.19s.07-.1.13-.14a.65.65 0 0 1 .43-.13c.12 0 .22.03.31.07s.16.1.21.18c.05.07.08.16.08.25h-.34c0-.04 0-.09-.03-.12s-.05-.07-.09-.09a.32.32 0 0 0-.15-.03c-.05 0-.1.01-.14.03s-.07.04-.09.07a.18.18 0 0 0-.03.1l.02.07c.01.02.04.05.07.06l.1.06.14.05.23.09a.6.6 0 0 1 .17.11c.05.04.08.1.1.14s.04.12.04.18c0 .08-.01.14-.04.2s-.07.1-.12.14c-.05.04-.11.06-.19.08a.95.95 0 0 1-.48 0 .71.71 0 0 1-.21-.1c-.06-.04-.11-.1-.15-.16s-.06-.14-.06-.24h.34c0 .05 0 .1.02.13l.07.09.1.04.13.02c.06 0 .1-.01.14-.03s.07-.04.09-.06a.18.18 0 0 0 .03-.1z" style="fill:var(--color4, #8e8f99)"/></symbol><symbol id="icon-group-4" viewBox="0 0 32 32"><path fill="#8e8f99" d="M2.43 23.8c.13.15.2.32.2.5a.77.77 0 0 1-.3.62c-.24.17-.54.25-.84.23H0v-3.12h1.46c.28-.01.57.06.8.21.1.07.17.16.22.26s.07.21.06.32c.01.17-.05.34-.17.48a.8.8 0 0 1-.44.24c.2.03.38.13.5.27zM.7 23.35h.62c.14 0 .28-.03.4-.1a.37.37 0 0 0 .13-.3c0-.07 0-.12-.03-.18s-.05-.1-.1-.13a.65.65 0 0 0-.4-.1H.68v.8zm1.08 1.2.12-.15a.3.3 0 0 0 .03-.17.4.4 0 0 0-.15-.32.7.7 0 0 0-.43-.12H.7v.86h.66a.7.7 0 0 0 .42-.1zM5.4 25.15l-.8-1.22h-.3v1.22h-.7v-3.12h1.32c.33-.02.66.08.91.27a.91.91 0 0 1 .1 1.29 1.1 1.1 0 0 1-.63.31l.87 1.25H5.4zM4.3 23.5h.57c.4 0 .59-.16.59-.48 0-.06 0-.12-.03-.19s-.07-.11-.12-.16a.66.66 0 0 0-.45-.12H4.3v.95zM9.21 24.52H7.83l-.25.63h-.73l1.28-3.08h.79l1.26 3.08h-.73l-.24-.63zm-.18-.47-.5-1.32-.51 1.32h1zM13.98 25.15h-.7l-1.54-2.12v2.12h-.7v-3.12h.7l1.55 2.13v-2.13h.69v3.12zM17.93 24.4c-.15.24-.37.43-.63.55-.3.14-.64.2-.97.2H15.1v-3.12h1.23c.33 0 .67.06.97.2.27.11.48.3.63.54a1.67 1.67 0 0 1 0 1.63zm-.8-.07a1.06 1.06 0 0 0 0-1.49 1.29 1.29 0 0 0-.86-.26h-.48v2.01h.48c.32.02.63-.07.86-.26zM9.65 4.7s8.92 3.04 8.73 7.43v7.42s-8.91-3.03-8.73-7.42V4.7zM26.33 17.81A13.09 13.09 0 0 1 32 15.93v-2.32a11.45 11.45 0 0 0-5.67 4.2z" style="fill:var(--color4, #8e8f99)"/><path fill="#8e8f99" d="M25.32 18.51A11.77 11.77 0 0 1 32 13.12v-6.7S19.3 10.76 19.56 17v10.56s.57-.19 1.46-.55c0-.34 0-.68.04-1.02.26-2.9 1.8-5.6 4.26-7.48z" style="fill:var(--color4, #8e8f99)"/><path fill="#8e8f99" d="M24.11 22.44c.07-.73.22-1.46.45-2.17a9.7 9.7 0 0 0-2.7 6.39c.73-.31 1.57-.7 2.45-1.16-.23-1-.3-2.04-.2-3.06zM24.61 22.48c-.08.92-.03 1.85.16 2.77 3.47-1.87 7.37-4.76 7.22-8.25v-.3c-2.48.24-4.8 1.22-6.6 2.77a9.58 9.58 0 0 0-.78 3z" style="fill:var(--color4, #8e8f99)"/></symbol><symbol id="icon-group-5" viewBox="0 0 32 32"><path fill="#8e8f99" d="M16.18 15.64a1 1 0 0 1-.2-.68v-.98c0-.3.06-.53.2-.69s.37-.23.7-.23c.32 0 .54.06.67.2.14.17.21.38.2.59v.23h-.56v-.24c0-.07 0-.15-.02-.23 0-.05-.04-.1-.08-.13a.33.33 0 0 0-.2-.06.34.34 0 0 0-.21.06.26.26 0 0 0-.1.15l-.02.24v1.2c0 .11.02.23.07.33.03.04.07.07.11.08s.1.03.15.02a.3.3 0 0 0 .2-.05.23.23 0 0 0 .08-.15l.02-.24v-.24h.56v.22a.9.9 0 0 1-.2.62c-.13.15-.35.22-.67.22s-.56-.08-.7-.24zM18.51 15.65c-.14-.15-.21-.38-.21-.67v-1.03c0-.3.07-.52.21-.67s.38-.22.71-.22c.33 0 .56.07.7.22s.22.37.22.67v1.03c0 .3-.07.52-.22.67s-.38.23-.7.23-.57-.08-.71-.23zm.97-.25c.05-.1.08-.2.07-.3v-1.27c0-.1-.02-.2-.07-.3-.03-.04-.07-.07-.11-.08s-.1-.03-.15-.02c-.05 0-.1 0-.15.02s-.08.04-.11.08c-.05.1-.08.2-.07.3v1.27c0 .1.02.21.07.3a.36.36 0 0 0 .26.11c.05 0 .1 0 .14-.03a.36.36 0 0 0 .12-.07zM20.81 13.09h.6l.46 1.9.46-1.9h.59l.06 2.75h-.43l-.05-1.91-.45 1.91h-.34l-.47-1.92-.04 1.92h-.44l.05-2.75zM23.65 13.09h.94c.54 0 .81.26.81.78 0 .5-.28.75-.85.75h-.32v1.22h-.58V13.1zm.8 1.18c.06 0 .12 0 .18-.02s.1-.04.14-.07c.07-.1.1-.2.09-.31 0-.09 0-.17-.03-.25 0-.03-.02-.06-.04-.08l-.08-.05a.6.6 0 0 0-.25-.05h-.23v.83h.23zM26.24 13.09h.62l.64 2.75h-.54l-.13-.63h-.55l-.13.63h-.55l.64-2.75zm.53 1.8-.22-1.16-.21 1.16h.43zM28.02 13.09h.4l.78 1.57v-1.57h.48v2.75h-.39l-.78-1.64v1.64h-.5V13.1zM30.8 14.8l-.64-1.7h.54l.4 1.08.37-1.09H32l-.64 1.7v1.05h-.55V14.8zM17.07 17.05v.14h-.47v1.12h-.2v-1.12h-.47v-.14h1.15zM18.56 18.31h-.16l-.04-.01a.07.07 0 0 1-.02-.03l-.14-.3h-.66l-.13.3-.03.03a.07.07 0 0 1-.04.01h-.15l.58-1.26h.2l.59 1.26zm-.96-.47h.54l-.23-.51a1.06 1.06 0 0 1-.04-.12l-.02.07-.02.05-.23.51zM19.56 18.19a.75.75 0 0 0 .29-.04l.07-.03v-.29h-.26l-.01-.02v-.11h.44v.49a.8.8 0 0 1-.24.1 1 1 0 0 1-.32.03c-.1 0-.2-.01-.29-.04a.7.7 0 0 1-.23-.14.6.6 0 0 1-.15-.2.61.61 0 0 1-.05-.26.58.58 0 0 1 .2-.46.7.7 0 0 1 .23-.13.99.99 0 0 1 .47-.04.81.81 0 0 1 .26.08l.1.07-.06.08-.02.01-.02.01h-.04a.82.82 0 0 1-.06-.04.76.76 0 0 0-.56-.04.44.44 0 0 0-.28.26.59.59 0 0 0 .01.42.51.51 0 0 0 .29.26c.07.02.15.03.22.03zM21.4 18.16h.64v.15h-.83v-1.26h.2v1.11zM22.7 18.3h-.2v-1.25h.2v1.26zM23.43 17.05a.1.1 0 0 1 .03.02l.85.96v-.99h.17v1.27h-.14a.1.1 0 0 1-.03-.03l-.85-.95v.98h-.16v-1.26h.13zM25.94 17.05v.13h-.7v.42h.57v.14h-.57v.43h.7v.14h-.9v-1.26h.9zM5.17 9.25l8.8 2.15v7.56l-8.8-2.16V9.25zm-.56-.65v8.57l9.93 2.43v-8.57L4.6 8.6z" style="fill:var(--color4, #8e8f99)"/><path fill="#8e8f99" d="M9.93 23.58 0 21.14v-8.56L9.93 15v8.57z" style="fill:var(--color4, #8e8f99)"/><path fill="#8e8f99" d="m4.77 9.15 8.69 2.13-3.7 3.19-8.68-2.13 3.7-3.2zm-.16-.55L0 12.58 9.93 15l4.6-3.97L4.62 8.6zM10.49 23.1l4.05-3.5-4.05-.99v4.49z" style="fill:var(--color4, #8e8f99)"/></symbol><symbol id="icon-group" viewBox="0 0 32 32"><path fill="#8e8f99" d="M14.22 1.8h-.75a14.18 14.18 0 0 0-.8.01A17.4 17.4 0 0 0 6.2 3.46l-.26.13v13.63l.62-.22a21.16 21.16 0 0 1 6.71-1.18v1.8c-.22 0-.43 0-.65.02h-.05A19.95 19.95 0 0 0 4.17 20V2.54A18.3 18.3 0 0 1 8.96.58c1.47-.38 3-.57 4.51-.58h.27a12.96 12.96 0 0 1 3.16.4v1.76c-.72-.16-1.45-.27-2.18-.33h-.05l-.44-.03zm3.1 1.8a19.35 19.35 0 0 0 5.95-.56c1.6-.4 3.13-1 4.57-1.78v17.16c-1.5.88-3.11 1.53-4.8 1.95-1.47.38-2.98.58-4.5.58-1.16.01-2.31-.12-3.43-.4V3.27a14.28 14.28 0 0 0 2.21.34zm8.74.14-.62.21a21.1 21.1 0 0 1-8.05 1.15l-.5-.04v14.02l.43.04a16.57 16.57 0 0 0 5.29-.48 17.1 17.1 0 0 0 3.18-1.14l.27-.13V3.74zM5.38 25.98a.91.91 0 0 0-.7-.28c-.13 0-.27.02-.4.07a.91.91 0 0 0-.5.52c-.06.12-.08.25-.08.39V29c0 .17.03.33.1.48a.81.81 0 0 0 .55.48c.11.03.23.05.35.05a.97.97 0 0 0 .9-.61.95.95 0 0 0 .06-.37v-.26h-.6v.2c0 .07-.02.15-.04.21a.36.36 0 0 1-.1.13.37.37 0 0 1-.12.07.42.42 0 0 1-.13.02.31.31 0 0 1-.28-.12.55.55 0 0 1-.09-.32V26.8c0-.12.03-.24.08-.35.03-.05.08-.1.13-.12s.11-.03.17-.02c.05 0 .1 0 .15.03s.09.06.12.1c.07.09.1.2.1.31v.2h.6v-.24a1.1 1.1 0 0 0-.27-.73zM9 25.95a1.05 1.05 0 0 0-1.38 0c-.1.1-.18.2-.24.33-.06.14-.09.3-.08.45v2.24c0 .16.02.31.08.46a.9.9 0 0 0 .24.31c.1.09.2.15.32.2a1.08 1.08 0 0 0 .73 0c.12-.05.24-.11.33-.2.1-.09.18-.2.23-.31.07-.15.1-.3.1-.46v-2.24c0-.16-.04-.31-.1-.45a1.02 1.02 0 0 0-.23-.33zm-.28 3.02a.4.4 0 0 1-.12.32.45.45 0 0 1-.58 0 .4.4 0 0 1-.12-.32v-2.24a.4.4 0 0 1 .12-.32.45.45 0 0 1 .58 0 .4.4 0 0 1 .12.32v2.24zM13.76 29.97v-4.24h-.58l-.77 2.24h-.02l-.77-2.24h-.58v4.24h.6v-2.58h.01l.6 1.82h.3l.6-1.82v2.58h.61zM17.2 26.03a.84.84 0 0 0-.34-.24 1.36 1.36 0 0 0-.44-.06h-.9v4.24h.6V28.3h.32c.19.01.37-.03.54-.11a.88.88 0 0 0 .34-.33c.07-.11.11-.24.13-.37a3 3 0 0 0-.02-1.08.9.9 0 0 0-.22-.4zm-.3 1.29c0 .08-.03.15-.06.22a.35.35 0 0 1-.16.15.62.62 0 0 1-.28.05h-.28V26.3h.31c.1 0 .19.02.27.05.07.04.12.1.15.16.03.08.05.16.05.24V27.32zM20.07 25.73h-.5l-.93 4.24h.6l.18-.91h.82l.18.9h.6l-.96-4.23zm-.56 2.75.3-1.54.3 1.54h-.6zM23.97 28.28h-.01l-.91-2.55h-.58v4.24h.6v-2.55h.01l.92 2.55h.57v-4.24h-.6v2.55zM27.66 25.73l-.49 1.69-.5-1.69h-.63l.83 2.45v1.79h.6v-1.8l.83-2.44h-.64zM3.7 31.17h.28v.81h.2v-.81h.3V31h-.79v.17zM6.14 31l-.38.98h.2l.09-.22h.4l.08.22h.21L6.35 31h-.21zm-.03.6.13-.37.14.36H6.1zM8.56 31.62h.23v.13a.38.38 0 0 1-.24.08c-.04 0-.08 0-.11-.02l-.1-.07a.41.41 0 0 1-.07-.26c0-.22.1-.33.28-.33.05 0 .1 0 .14.04s.07.07.09.12l.2-.04c-.05-.2-.19-.29-.43-.29a.5.5 0 0 0-.34.13c-.05.05-.09.1-.11.17s-.04.14-.03.2c0 .14.04.27.13.38a.48.48 0 0 0 .37.14c.15 0 .3-.05.42-.16v-.39h-.43v.17zM11.03 31h-.2v.98h.69v-.17h-.49V31zM13.12 31h-.2v.98h.2V31zM15.16 31.66l-.4-.66h-.2v.98h.19v-.64l.4.64h.2V31h-.19v.66zM17 31.55h.5v-.17H17v-.21h.54V31h-.73v.98h.75v-.16H17v-.27zM21.48 31.39h-.38v-.4h-.2v1h.2v-.44h.38v.43h.2V31h-.2v.39zM23.34 31.55h.5v-.17h-.5v-.21h.53V31h-.73v.98h.75v-.16h-.55v-.27zM25.86 31.55c.17-.03.26-.12.26-.28a.24.24 0 0 0-.1-.21.55.55 0 0 0-.29-.06h-.41v.98h.2v-.41h.03c.05 0 .09 0 .13.02l.07.07.21.32h.24l-.12-.2a.69.69 0 0 0-.22-.23zm-.2-.14h-.14v-.24h.15c.07 0 .14 0 .2.02l.03.04.02.06-.02.06a.11.11 0 0 1-.04.04.55.55 0 0 1-.2.02zM27.76 31.55h.49v-.17h-.49v-.21h.53V31h-.73v.98h.75v-.16h-.55v-.27z" style="fill:var(--color4, #8e8f99)"/></symbol><symbol id="icon-antenna" viewBox="0 0 32 32"><path fill="#2e2f42" d="m30.77 22.1-8.44-8.5.94-4.62c.24.1.5.14.76.14h.03a2.16 2.16 0 1 0-2.03-1.42V7.7l-4.97.6L8.97.16A.53.53 0 0 0 8.6 0a.54.54 0 0 0-.38.15l-1.5 1.5a.53.53 0 0 0 0 .76l.8.83a14.9 14.9 0 0 0 2.52 17.66l.15.1c-.03.16-.05.35-.05.55v6.18h-6.4a2.67 2.67 0 0 0-2.67 2.67v1.07c0 .3.24.53.54.53h24.53c.3 0 .53-.24.53-.53V30.4c0-1.47-1.2-2.67-2.66-2.67h-6.4V25a14.78 14.78 0 0 0 10.17-1.5l-.08.04.81.82a.53.53 0 0 0 .75 0l1.52-1.5a.53.53 0 0 0 0-.75zM23.28 6.23c.2-.19.46-.3.75-.3a1.07 1.07 0 0 1 0 2.13 1.07 1.07 0 0 1-.75-1.83zm-1.26 3.5-.6 2.95-1.17-1.18 1.77-1.76zm-.6-.9-1.92 1.92L18 9.25l3.4-.41zM24 28.8c.89 0 1.6.72 1.6 1.6v.53H2.14v-.53c0-.88.71-1.6 1.6-1.6H24zm-7.46-2.13v1.06H11.2v-1.06h5.34zM11.2 25.6v-4.05c0-1.3 1.2-2.35 2.67-2.35s2.67 1.05 2.67 2.35v4.05H11.2zm6.4-1.7v-2.35c0-1.89-1.67-3.42-3.73-3.42h-.06a3.8 3.8 0 0 0-3.21 1.78l-.01.01A13.82 13.82 0 0 1 8.35 3.96l-.04.08 18.6 18.7a13.64 13.64 0 0 1-9.4 1.15l.1.02zm11.3-.68L7.83 2.04l.75-.75 7.94 7.98 13.12 13.2-.76.75z" style="fill:var(--color5, #2e2f42)"/><path fill="#4d5ae5" d="M13.88 20.27h-.01a1.6 1.6 0 0 0 0 3.2 1.6 1.6 0 0 0 0-3.2zm.37 1.98c-.1.1-.23.15-.38.15a.53.53 0 0 1 0-1.07.53.53 0 0 1 .37.92z" style="fill:var(--color3, #4d5ae5)"/></symbol><symbol id="icon-clock" viewBox="0 0 31 32"><path d="M30.8 15.3a15.3 15.3 0 1 0-20.07 14.55l.1.03a.67.67 0 0 0 .53-.06c.14-.08.24-.2.29-.36l3.87-12.25a1.91 1.91 0 1 0-.86-3.63h.02l-5.11-5.1a.64.64 0 1 0-.9.9l5.1 5.1a1.87 1.87 0 0 0 .53 2.3v.01l-3.68 11.67a14.04 14.04 0 1 1 10.66-.38l-.09.03-.4-1.87a.64.64 0 0 0-1.04-.34l-3.84 3.42a.64.64 0 0 0 .23 1.08l4.9 1.57a.64.64 0 0 0 .82-.74l-.4-1.84a15.29 15.29 0 0 0 9.34-14.06v-.03zm-15.3-.64a.64.64 0 0 1 0 1.28.64.64 0 0 1 0-1.28zm2.1 14.87 2.18-1.95.6 2.84-2.79-.9z"/></symbol><symbol id="icon-schedule" viewBox="0 0 32 32"><path fill="#4d5ae5" d="M14.93 14.96h1.06v4.8h-1.06v-4.8zm4.26 2.14h1.07v2.66h-1.07V17.1zm-8.53 1.6h1.07v1.06h-1.07V18.7zm-3.2-.54h1.07v1.6H7.46v-1.6z" style="fill:var(--color3, #4d5ae5)"/><path fill="#2e2f42" d="M1.6 28.3h25.59c.88 0 1.6-.73 1.6-1.6v-2.14c0-.88-.72-1.6-1.6-1.6h-.54V9.66l3.03-2.86a1.6 1.6 0 1 0-.74-.75v-.01L26.64 8.2V6.97c0-.88-.71-1.6-1.6-1.6H3.73c-.88 0-1.6.72-1.6 1.6v16H1.6c-.89 0-1.6.7-1.6 1.59v2.13c0 .89.71 1.6 1.6 1.6zM30.38 4.83a.53.53 0 0 1 0 1.06.53.53 0 0 1 0-1.06zM3.2 6.97c0-.3.24-.53.53-.53h21.32c.3 0 .54.23.54.53V9.2l-1.07 1.01V8.03c0-.29-.24-.53-.53-.53H4.79c-.29 0-.53.24-.53.53v13.33c0 .3.24.54.54.54h19.19c.3 0 .53-.24.53-.54V11.7l1.07-1.01v12.28H3.19v-16zM8 13.9a1.6 1.6 0 1 0 1.1 2.75l1.86.93c.21.1.47.05.63-.13l3.94-4.43 3.87 2.9c.21.16.5.14.69-.04l3.36-3.18v8.13H5.33V8.57h18.12v2.66l-3.77 3.57-3.9-2.93a.53.53 0 0 0-.72.07l-4 4.5-1.49-.75c.02-.06.02-.13.03-.2 0-.88-.72-1.6-1.6-1.6zm.53 1.6a.53.53 0 0 1-1.07 0 .53.53 0 0 1 1.07 0zm3.2 8.53h5.33v.53c0 .3-.24.53-.53.53h-4.27a.53.53 0 0 1-.53-.53v-.53zm-10.66.53c0-.3.24-.53.53-.53h9.06v.53c0 .88.72 1.6 1.6 1.6h4.26c.89 0 1.6-.72 1.6-1.6v-.53h9.06c.3 0 .54.23.54.53v2.13c0 .3-.24.53-.54.53H1.6a.53.53 0 0 1-.53-.53v-2.13z" style="fill:var(--color5, #2e2f42)"/></symbol><symbol id="icon-astronaut" viewBox="0 0 32 32"><path fill="#4d5ae5" d="M31.97 4.52a.54.54 0 0 0-.42-.36l-1.92-.28-.85-1.73c-.18-.36-.78-.36-.96 0l-.85 1.73-1.91.28a.53.53 0 0 0-.3.91l1.38 1.35-.32 1.9v.09a.53.53 0 0 0 .78.47l1.7-.9 1.71.9a.53.53 0 0 0 .77-.57v.01l-.32-1.9 1.38-1.35a.53.53 0 0 0 .13-.55zm-2.46 1.33a.53.53 0 0 0-.15.47l.19 1.12-1-.53a.52.52 0 0 0-.5 0l-1 .53.2-1.12a.53.53 0 0 0-.15-.47l-.82-.79 1.12-.16a.53.53 0 0 0 .4-.3l.5-1 .5 1c.08.16.23.27.4.3l1.12.16-.8.8zm-3.38 14.67h-1.06v1.07h1.06v-1.07zm0 2.14h-1.06v1.06h1.06v-1.06zM27.2 21.59h-1.07v1.07h1.07v-1.07zm-2.13 0H24v1.07h1.07v-1.07zm-2.67 4.8h-1.07v1.07h1.07v-1.07zm0 2.13h-1.07v1.07h1.07v-1.07zm1.07-1.06H22.4v1.06h1.07v-1.06zM21.33 27.46h-1.06v1.06h1.06v-1.06zM16 24.26h-1.07v1.06H16v-1.06zm0 2.13h-1.07v1.07H16v-1.07zm1.07-1.07H16v1.07h1.07v-1.07zm-2.14 0h-1.06v1.07h1.06v-1.07zM5.87 6.12H4.8V7.2h1.07V6.12zm0 2.14H4.8v1.06h1.07V8.26zm1.06-1.07H5.87v1.07h1.06V7.19zm-2.13 0H3.73v1.07H4.8V7.19z" style="fill:var(--color3, #4d5ae5)"/><path fill="#2e2f42" d="M24.71 14.16c-.28-.38-.7-.64-1.17-.7h-.01a1.76 1.76 0 0 0-1.34.36v-.01l-1.26.96-1.9 1.41-1.35-.54A6.94 6.94 0 0 0 14.83 2.4a6.96 6.96 0 0 0-6.96 6.93c0 1.39.41 2.68 1.12 3.76l-2.77-.02H6.2a.5.5 0 0 0-.16.03l-.04.02H6l-3.24 1.6-1.9.91a1.78 1.78 0 0 0-.66 2.34 1.78 1.78 0 0 0 2.45.75l1.38-.74 2.26-1.16 1.36-.01L2.2 22.2.86 23.55c-.3.3-.5.71-.5 1.17a1.67 1.67 0 0 0 2.85 1.18l1.32-1.3 1.74-1.3.9.9-3.1 3.08a1.66 1.66 0 0 0 1.18 2.84c.46 0 .88-.18 1.18-.48l3.48-3.47 1.01-1 .02-.02 5.17-5.66 3.47.5h.07c.07 0 .13-.01.2-.04h-.01l.05-.02.06-.03 3.21-2.13.03-.03.04-.02 1.27-1.2a1.78 1.78 0 0 0 .21-2.36zM2.14 17.77a.71.71 0 0 1-.56.05.72.72 0 0 1-.21-1.26l1.31-.63.32.93.13.38-1 .53zm3.5-1.83-1.55.8-.26-.74-.18-.54 2.03-1-.04 1.48zm15.1-6.62c0 .92-.22 1.79-.6 2.56l-4.18-1.9a1.86 1.86 0 0 0-.79-1.38l1.46-4.87a5.88 5.88 0 0 1 4.1 5.6zm-11.8 0a5.89 5.89 0 0 1 6.65-5.81l-1.44 4.75h-.05c-1.04 0-1.87.83-1.88 1.86 0 1.03.84 1.87 1.88 1.87.69 0 1.29-.38 1.61-.94l3.87 1.75A5.9 5.9 0 0 1 8.94 9.32zm5.96.8a.8.8 0 0 1-1.61 0c0-.44.36-.8.8-.8s.81.36.81.8zM2.46 25.15a.6.6 0 0 1-.85 0 .6.6 0 0 1 0-.85l.96-.96.85.85-.95.96zm3.22 3.73a.6.6 0 0 1-.86 0 .6.6 0 0 1 0-.84l.97-.96.85.85-.96.95zm3.48-3.47-1.77 1.76-.85-.85 1.77-1.75c.04-.04.06-.1.09-.14l.02-.04c.02-.04.02-.08.03-.13l.01-.07c0-.04 0-.07-.02-.1l-.01-.1a.51.51 0 0 0-.1-.14l-.02-.04-1.61-1.6-.06-.04a.5.5 0 0 0-.08-.05.48.48 0 0 0-.1-.04.5.5 0 0 0-.1-.02h-.02l-.08.01a.59.59 0 0 0-.1.02.5.5 0 0 0-.1.05l-.05.02-1.78 1.33-.9-.9 2.4-2.39 4.36 4.3-.93.91zm6.82-7.02h-.07l-.1.01a.5.5 0 0 0-.18.07.48.48 0 0 0-.08.06l-.04.03-4.7 5.15-4.33-4.26 2.84-2.82a.53.53 0 0 0-.38-.9H6.72l.03-1.6 3.1.03a6.93 6.93 0 0 0 4.98 2.1 7 7 0 0 0 1.28-.13c.04.04.08.07.13.09l2.4.96.16.76.18.88-3-.42zm4.04.18-.31-1.55 1.44-1.08.95 1.25-2.08 1.38zm3.75-2.83-.83.79-.94-1.24.84-.64a.72.72 0 0 1 .94 1.09z" style="fill:var(--color5, #2e2f42)"/><path fill="#2e2f42" d="m13.6 18.54-2.14-2.13a.53.53 0 0 0-.75 0l-2.15 2.13a.53.53 0 0 0 0 .76l2.15 2.13a.53.53 0 0 0 .75 0l2.14-2.13a.53.53 0 0 0 0-.76zm-2.52 1.76L9.7 18.92l1.38-1.38 1.39 1.38-1.39 1.38zm6.08-15.23-.25 1.04c.07.01 1.73.45 1.73 2.14h1.07c0-2.01-1.66-2.96-2.54-3.18zm2.55 4.25h-1.07v1.07h1.07V9.32z" style="fill:var(--color5, #2e2f42)"/></symbol><symbol id="icon-Instagram-2" viewBox="0 0 32 32"><path fill="#fff" d="M32 16c0 4.42-1.8 8.42-4.69 11.31a15.96 15.96 0 0 1-22.62 0 15.95 15.95 0 0 1 0-22.63C7.59 1.8 11.59 0 16 0c4.42 0 8.42 1.8 11.31 4.69S32 11.59 32 16z" opacity=".1" style="fill:var(--color1, #fff)"/><path fill="#f4f4fd" d="M25.58 12.04a7.02 7.02 0 0 0-.44-2.32 4.7 4.7 0 0 0-1.12-1.7 4.71 4.71 0 0 0-1.7-1.11c-.6-.24-1.3-.4-2.32-.45-1.03-.05-1.36-.06-3.96-.06s-2.94.01-3.96.06a7.02 7.02 0 0 0-2.33.44 4.7 4.7 0 0 0-1.7 1.11 4.72 4.72 0 0 0-1.1 1.7c-.25.61-.41 1.31-.46 2.33-.04 1.03-.06 1.36-.06 3.96s.02 2.93.06 3.96c.05 1.02.21 1.72.45 2.33.24.64.62 1.22 1.1 1.7.49.49 1.07.87 1.7 1.1.62.24 1.31.4 2.33.45 1.03.05 1.35.06 3.96.06s2.93-.01 3.96-.06a7.02 7.02 0 0 0 2.33-.44 4.91 4.91 0 0 0 2.8-2.81c.24-.61.4-1.31.45-2.33.05-1.03.06-1.35.06-3.96s0-2.93-.05-3.96zm-1.73 7.84c-.04.94-.2 1.45-.33 1.79-.32.83-.98 1.5-1.82 1.82-.34.13-.85.29-1.78.33-1.02.04-1.32.05-3.88.05s-2.87 0-3.88-.05a5.27 5.27 0 0 1-1.78-.33c-.42-.15-.8-.4-1.1-.72a2.96 2.96 0 0 1-.72-1.1 5.29 5.29 0 0 1-.33-1.78c-.04-1.02-.06-1.32-.06-3.88s.02-2.87.06-3.88c.04-.94.2-1.44.33-1.78.15-.42.4-.8.72-1.1.31-.32.69-.57 1.1-.72.34-.13.85-.29 1.79-.33a67.8 67.8 0 0 1 3.87-.06c2.57 0 2.87.02 3.88.06.94.04 1.45.2 1.78.33.42.15.8.4 1.1.72.33.3.57.68.72 1.1.13.34.3.85.33 1.78.05 1.01.06 1.32.06 3.88s-.01 2.86-.06 3.87z" style="fill:var(--color2, #f4f4fd)"/><path fill="#f4f4fd" d="M16.04 11.07a4.93 4.93 0 1 0 0 9.87 4.93 4.93 0 0 0 0-9.87zm0 8.13a3.2 3.2 0 1 1 0-6.4 3.2 3.2 0 0 1 0 6.4zM22.31 10.88a1.15 1.15 0 1 1-2.3 0 1.15 1.15 0 0 1 2.3 0z" style="fill:var(--color2, #f4f4fd)"/></symbol><symbol id="icon-Instagram" viewBox="0 0 32 32"><path fill="#4d5ae5" d="M32 16c0 4.42-1.8 8.42-4.69 11.31a15.96 15.96 0 0 1-22.62 0 15.95 15.95 0 0 1 0-22.63C7.59 1.8 11.59 0 16 0c4.42 0 8.42 1.8 11.31 4.69S32 11.59 32 16z" style="fill:var(--color3, #4d5ae5)"/><path fill="#f4f4fd" d="M22.39 13.36a4.67 4.67 0 0 0-.3-1.55 3.14 3.14 0 0 0-.74-1.14c-.32-.32-.7-.57-1.13-.73-.41-.16-.88-.27-1.56-.3-.68-.03-.9-.04-2.64-.04s-1.95 0-2.64.04c-.68.03-1.14.14-1.55.3-.43.16-.81.4-1.13.74-.33.32-.58.7-.74 1.13-.16.4-.27.87-.3 1.55-.03.69-.04.9-.04 2.64s0 1.96.04 2.64c.03.68.14 1.15.3 1.55.16.43.41.82.74 1.14.32.32.7.58 1.13.74.4.15.87.26 1.55.3.69.02.9.03 2.64.03s1.96 0 2.64-.04a4.67 4.67 0 0 0 1.55-.3 3.28 3.28 0 0 0 1.87-1.87c.16-.4.27-.87.3-1.55.03-.68.04-.9.04-2.64s0-1.95-.03-2.64zm-1.16 5.23c-.02.62-.13.96-.22 1.19-.21.55-.65 1-1.21 1.21-.23.09-.56.2-1.19.22-.67.03-.88.04-2.58.04s-1.92 0-2.59-.04a3.49 3.49 0 0 1-1.19-.22c-.27-.1-.53-.26-.73-.48a2 2 0 0 1-.48-.73 3.5 3.5 0 0 1-.22-1.19c-.03-.67-.04-.88-.04-2.59s0-1.9.04-2.58c.03-.63.13-.96.22-1.19.1-.28.27-.53.48-.73.2-.22.46-.38.74-.48.22-.09.56-.2 1.18-.22.68-.03.88-.04 2.59-.04 1.7 0 1.91 0 2.58.04.63.03.97.13 1.2.22.27.1.52.26.73.48.21.2.37.45.48.73.08.23.19.57.22 1.19.03.67.03.88.03 2.58s0 1.91-.03 2.59z" style="fill:var(--color2, #f4f4fd)"/><path fill="#f4f4fd" d="M16.02 12.71a3.29 3.29 0 1 0 0 6.58 3.29 3.29 0 0 0 0-6.58zm0 5.42a2.13 2.13 0 1 1 0-4.26 2.13 2.13 0 0 1 0 4.26zM20.21 12.58a.77.77 0 1 1-1.54 0 .77.77 0 0 1 1.54 0z" style="fill:var(--color2, #f4f4fd)"/></symbol><symbol id="icon-Linkedin-2" viewBox="0 0 32 32"><path fill="#fff" d="M32 16c0 4.42-1.8 8.42-4.69 11.31a15.96 15.96 0 0 1-22.62 0 15.95 15.95 0 0 1 0-22.63C7.59 1.8 11.59 0 16 0c4.42 0 8.42 1.8 11.31 4.69S32 11.59 32 16z" opacity=".1" style="fill:var(--color1, #fff)"/><path fill="#f4f4fd" d="M25.6 25.6v-7.04c0-3.45-.74-6.1-4.77-6.1a4.18 4.18 0 0 0-3.77 2.07h-.05v-1.75h-3.82V25.6h3.98v-6.35c0-1.67.31-3.28 2.38-3.28 2.04 0 2.07 1.9 2.07 3.39v6.24h3.97zM6.72 12.78h3.98V25.6H6.72V12.78zM8.7 6.4c-1.27 0-2.3 1.03-2.3 2.3s1.03 2.33 2.3 2.33a2.3 2.3 0 0 0 0-4.63z" style="fill:var(--color2, #f4f4fd)"/></symbol><symbol id="icon-Linkedin" viewBox="0 0 32 32"><path fill="#4d5ae5" d="M32 16c0 4.42-1.8 8.42-4.69 11.31a15.96 15.96 0 0 1-22.62 0 15.95 15.95 0 0 1 0-22.63C7.59 1.8 11.59 0 16 0c4.42 0 8.42 1.8 11.31 4.69S32 11.59 32 16z" style="fill:var(--color3, #4d5ae5)"/><path fill="#f4f4fd" d="M22.4 22.4v-4.7c0-2.3-.5-4.06-3.18-4.06-1.29 0-2.16.7-2.5 1.38h-.05v-1.17h-2.54v8.55h2.65v-4.23c0-1.12.21-2.2 1.59-2.2 1.36 0 1.38 1.28 1.38 2.27v4.16h2.65zM9.81 13.85h2.65v8.55H9.81v-8.55zM11.14 9.6a1.55 1.55 0 0 0 0 3.09c.85 0 1.53-.7 1.53-1.55s-.69-1.54-1.53-1.54z" style="fill:var(--color2, #f4f4fd)"/></symbol><symbol id="icon-sprite-1" viewBox="0 0 32 32"><path fill="#f4f4fd" d="M11.14 9.6a1.55 1.55 0 0 0 0 3.09c.85 0 1.53-.7 1.53-1.55s-.69-1.54-1.53-1.54z" style="fill:var(--color2, #f4f4fd)"/></symbol><symbol id="icon-Twitter-2" viewBox="0 0 32 32"><path fill="#fff" d="M32 16c0 4.42-1.8 8.42-4.69 11.31a15.96 15.96 0 0 1-22.62 0 15.95 15.95 0 0 1 0-22.63C7.59 1.8 11.59 0 16 0c4.42 0 8.42 1.8 11.31 4.69S32 11.59 32 16z" opacity=".1" style="fill:var(--color1, #fff)"/><path fill="#f4f4fd" d="M25.6 10.05c-.71.31-1.48.52-2.27.62a3.92 3.92 0 0 0 1.73-2.18c-.76.46-1.6.78-2.5.96a3.94 3.94 0 0 0-6.71 3.58 11.14 11.14 0 0 1-8.11-4.11 3.96 3.96 0 0 0 1.2 5.26 3.89 3.89 0 0 1-1.77-.49v.05c0 1.91 1.36 3.5 3.15 3.86a3.91 3.91 0 0 1-1.78.07 3.97 3.97 0 0 0 3.68 2.74 7.9 7.9 0 0 1-5.82 1.62 11.09 11.09 0 0 0 6.04 1.77c7.24 0 11.2-6 11.2-11.2l-.01-.5a7.85 7.85 0 0 0 1.97-2.05z" style="fill:var(--color2, #f4f4fd)"/></symbol><symbol id="icon-Twitter" viewBox="0 0 32 32"><path fill="#4d5ae5" d="M32 16c0 4.42-1.8 8.42-4.69 11.31a15.96 15.96 0 0 1-22.62 0 15.95 15.95 0 0 1 0-22.63C7.59 1.8 11.59 0 16 0c4.42 0 8.42 1.8 11.31 4.69S32 11.59 32 16z" style="fill:var(--color3, #4d5ae5)"/><path fill="#f4f4fd" d="M22.4 12.03c-.48.21-.98.35-1.51.42A2.6 2.6 0 0 0 22.04 11c-.5.3-1.07.51-1.66.63a2.63 2.63 0 0 0-4.48 2.4 7.43 7.43 0 0 1-5.4-2.75c-.24.4-.37.84-.37 1.32 0 .91.47 1.72 1.17 2.19a2.6 2.6 0 0 1-1.19-.33v.03c0 1.28.91 2.34 2.1 2.58a2.64 2.64 0 0 1-1.18.04 2.65 2.65 0 0 0 2.45 1.83 5.27 5.27 0 0 1-3.88 1.08 7.38 7.38 0 0 0 4.02 1.18 7.42 7.42 0 0 0 7.46-7.8c.52-.38.96-.84 1.32-1.37z" style="fill:var(--color2, #f4f4fd)"/></symbol><symbol id="icon-Linkedin-21" viewBox="0 0 32 32"><path fill="#fff" d="M32 16c0 4.42-1.8 8.42-4.69 11.31a15.96 15.96 0 0 1-22.62 0 15.95 15.95 0 0 1 0-22.63C7.59 1.8 11.59 0 16 0c4.42 0 8.42 1.8 11.31 4.69S32 11.59 32 16z" opacity=".1" style="fill:var(--color1, #fff)"/><path fill="#f4f4fd" d="M25.6 25.6v-7.04c0-3.45-.74-6.1-4.77-6.1a4.18 4.18 0 0 0-3.77 2.07h-.05v-1.75h-3.82V25.6h3.98v-6.35c0-1.67.31-3.28 2.38-3.28 2.04 0 2.07 1.9 2.07 3.39v6.24h3.97zM6.72 12.78h3.98V25.6H6.72V12.78zM8.7 6.4c-1.27 0-2.3 1.03-2.3 2.3s1.03 2.33 2.3 2.33a2.3 2.3 0 0 0 0-4.63z" style="fill:var(--color2, #f4f4fd)"/></symbol><symbol id="icon-Facebook21" viewBox="0 0 32 32"><path fill="#fff" d="M32 16c0 4.42-1.8 8.42-4.69 11.31a15.96 15.96 0 0 1-22.62 0 15.95 15.95 0 0 1 0-22.63C7.59 1.8 11.59 0 16 0c4.42 0 8.42 1.8 11.31 4.69S32 11.59 32 16z" opacity=".1" style="fill:var(--color1, #fff)"/><path fill="#f4f4fd" d="M19.2 9.59h1.75V6.53c-.3-.04-1.34-.13-2.55-.13-2.53 0-4.26 1.59-4.26 4.51v2.69h-2.79v3.41h2.79v8.59h3.42v-8.59h2.67l.43-3.4h-3.1v-2.36c0-.99.26-1.66 1.64-1.66z" style="fill:var(--color2, #f4f4fd)"/></symbol><symbol id="icon-Twitter-21" viewBox="0 0 32 32"><path fill="#fff" d="M32 16c0 4.42-1.8 8.42-4.69 11.31a15.96 15.96 0 0 1-22.62 0 15.95 15.95 0 0 1 0-22.63C7.59 1.8 11.59 0 16 0c4.42 0 8.42 1.8 11.31 4.69S32 11.59 32 16z" opacity=".1" style="fill:var(--color1, #fff)"/><path fill="#f4f4fd" d="M25.6 10.05c-.71.31-1.48.52-2.27.62a3.92 3.92 0 0 0 1.73-2.18c-.76.46-1.6.78-2.5.96a3.94 3.94 0 0 0-6.71 3.58 11.14 11.14 0 0 1-8.11-4.11 3.96 3.96 0 0 0 1.2 5.26 3.89 3.89 0 0 1-1.77-.49v.05c0 1.91 1.36 3.5 3.15 3.86a3.91 3.91 0 0 1-1.78.07 3.97 3.97 0 0 0 3.68 2.74 7.9 7.9 0 0 1-5.82 1.62 11.09 11.09 0 0 0 6.04 1.77c7.24 0 11.2-6 11.2-11.2l-.01-.5a7.85 7.85 0 0 0 1.97-2.05z" style="fill:var(--color2, #f4f4fd)"/></symbol><symbol id="icon-Instagram-21" viewBox="0 0 32 32"><path fill="#fff" d="M32 16c0 4.42-1.8 8.42-4.69 11.31a15.96 15.96 0 0 1-22.62 0 15.95 15.95 0 0 1 0-22.63C7.59 1.8 11.59 0 16 0c4.42 0 8.42 1.8 11.31 4.69S32 11.59 32 16z" opacity=".1" style="fill:var(--color1, #fff)"/><path fill="#f4f4fd" d="M25.58 12.04a7.02 7.02 0 0 0-.44-2.32 4.7 4.7 0 0 0-1.12-1.7 4.71 4.71 0 0 0-1.7-1.11c-.6-.24-1.3-.4-2.32-.45-1.03-.05-1.36-.06-3.96-.06s-2.94.01-3.96.06a7.02 7.02 0 0 0-2.33.44 4.7 4.7 0 0 0-1.7 1.11 4.72 4.72 0 0 0-1.1 1.7c-.25.61-.41 1.31-.46 2.33-.04 1.03-.06 1.36-.06 3.96s.02 2.93.06 3.96c.05 1.02.21 1.72.45 2.33.24.64.62 1.22 1.1 1.7.49.49 1.07.87 1.7 1.1.62.24 1.31.4 2.33.45 1.03.05 1.35.06 3.96.06s2.93-.01 3.96-.06a7.02 7.02 0 0 0 2.33-.44 4.91 4.91 0 0 0 2.8-2.81c.24-.61.4-1.31.45-2.33.05-1.03.06-1.35.06-3.96s0-2.93-.05-3.96zm-1.73 7.84c-.04.94-.2 1.45-.33 1.79-.32.83-.98 1.5-1.82 1.82-.34.13-.85.29-1.78.33-1.02.04-1.32.05-3.88.05s-2.87 0-3.88-.05a5.27 5.27 0 0 1-1.78-.33c-.42-.15-.8-.4-1.1-.72a2.96 2.96 0 0 1-.72-1.1 5.29 5.29 0 0 1-.33-1.78c-.04-1.02-.06-1.32-.06-3.88s.02-2.87.06-3.88c.04-.94.2-1.44.33-1.78.15-.42.4-.8.72-1.1.31-.32.69-.57 1.1-.72.34-.13.85-.29 1.79-.33a67.8 67.8 0 0 1 3.87-.06c2.57 0 2.87.02 3.88.06.94.04 1.45.2 1.78.33.42.15.8.4 1.1.72.33.3.57.68.72 1.1.13.34.3.85.33 1.78.05 1.01.06 1.32.06 3.88s-.01 2.86-.06 3.87z" style="fill:var(--color2, #f4f4fd)"/><path fill="#f4f4fd" d="M16.04 11.07a4.93 4.93 0 1 0 0 9.87 4.93 4.93 0 0 0 0-9.87zm0 8.13a3.2 3.2 0 1 1 0-6.4 3.2 3.2 0 0 1 0 6.4zM22.31 10.88a1.15 1.15 0 1 1-2.3 0 1.15 1.15 0 0 1 2.3 0z" style="fill:var(--color2, #f4f4fd)"/></symbol><symbol id="icon-group-51" viewBox="0 0 67 32"><path fill="#8e8f99" d="M33.8 15.25a2.1 2.1 0 0 1-.43-1.42v-2.05c0-.63.14-1.11.43-1.44s.77-.49 1.47-.49c.65 0 1.12.14 1.39.42.3.36.45.8.41 1.23v.48H35.9v-.49c0-.16 0-.32-.03-.47a.46.46 0 0 0-.17-.29.68.68 0 0 0-.42-.1.71.71 0 0 0-.45.1c-.1.1-.17.2-.2.32-.02.17-.04.34-.04.51v2.5c-.01.23.04.47.15.7.06.07.14.12.24.16s.2.05.3.04c.15.01.3-.03.41-.11a.5.5 0 0 0 .18-.3c.02-.17.04-.34.03-.5v-.51h1.17V14c.03.46-.1.91-.4 1.3-.27.3-.73.45-1.4.45s-1.18-.16-1.47-.5zM38.67 15.27c-.3-.32-.45-.79-.45-1.4V11.7c0-.61.15-1.08.45-1.39s.79-.47 1.48-.47 1.18.16 1.47.47c.3.32.45.78.45 1.39v2.16c0 .6-.15 1.08-.45 1.4s-.79.48-1.47.48-1.18-.16-1.48-.48zm2.02-.52c.11-.2.16-.42.14-.64v-2.64c.02-.22-.03-.43-.13-.63-.06-.08-.15-.14-.24-.17s-.2-.05-.31-.04c-.1-.01-.21 0-.31.04s-.18.1-.24.17c-.1.2-.15.41-.14.63v2.65c-.01.23.03.44.14.64a.79.79 0 0 0 .55.21.75.75 0 0 0 .55-.21zM43.48 9.92h1.26l.94 3.98.97-3.98h1.23l.12 5.75h-.9l-.1-4-.94 4h-.73l-.96-4.01-.1 4.01h-.9l.1-5.75zM49.41 9.92h1.96c1.13 0 1.7.54 1.7 1.63 0 1.04-.6 1.56-1.79 1.56h-.67v2.56h-1.2V9.92zm1.68 2.46a.95.95 0 0 0 .66-.19c.14-.19.2-.42.18-.65 0-.17-.02-.35-.06-.52-.02-.06-.05-.1-.1-.16s-.09-.08-.14-.11c-.17-.07-.36-.1-.54-.1h-.47v1.72h.47zM54.81 9.92h1.3l1.34 5.75h-1.13l-.27-1.33H54.9l-.27 1.33h-1.14l1.33-5.75zm1.11 3.76-.45-2.42-.45 2.42h.9zM58.52 9.92h.85l1.62 3.28V9.92h1v5.75h-.8l-1.63-3.43v3.43h-1.04V9.92zM64.35 13.48 63 9.92h1.14l.82 2.29.77-2.28h1.11l-1.33 3.55v2.2h-1.16v-2.2zM35.67 18.19v.3h-.99v2.33h-.41V18.5h-1v-.3h2.4zM38.76 20.82h-.32c-.03 0-.06 0-.09-.02a.13.13 0 0 1-.05-.06l-.28-.63h-1.38l-.28.63-.04.07a.15.15 0 0 1-.1.02h-.31l1.2-2.63h.43l1.22 2.62zm-2-.98h1.14l-.48-1.07a1.85 1.85 0 0 1-.1-.25c0 .05-.02.1-.04.14l-.04.11-.48 1.08zM40.85 20.57h.23a1.4 1.4 0 0 0 .37-.08l.16-.07v-.6h-.52l-.03-.01-.02-.02v-.23h.94v1a1.9 1.9 0 0 1-.82.28l-.35.01c-.21 0-.42-.03-.61-.1a1.5 1.5 0 0 1-.49-.27 1.26 1.26 0 0 1-.42-.97 1.22 1.22 0 0 1 .42-.97c.14-.11.3-.2.49-.27a2.02 2.02 0 0 1 .98-.07 1.65 1.65 0 0 1 .74.3l-.11.17-.04.03-.06.02-.07-.02a1.81 1.81 0 0 1-.12-.07l-.16-.07a1.52 1.52 0 0 0-1 0c-.13.04-.26.11-.36.2-.1.1-.17.2-.22.33-.1.29-.1.6 0 .88a1.03 1.03 0 0 0 .6.54c.15.05.31.06.47.05zM44.71 20.52h1.32v.3h-1.72v-2.64h.41v2.34zM47.4 20.82H47V18.2h.4v2.63zM48.95 18.2l.06.05 1.77 1.98v-2.06h.36v2.65h-.2a.2.2 0 0 1-.1-.01.23.23 0 0 1-.06-.05L49 18.77v2.05h-.34v-2.64h.21a.2.2 0 0 1 .07.02zM54.19 18.19v.29h-1.47v.87h1.2v.28h-1.2v.9h1.47v.29h-1.9v-2.64h1.9zM10.8 1.9 29.2 6.4v15.78l-18.39-4.5V1.89zM9.63.54v17.9l20.73 5.08V5.63L9.64.54z" style="fill:var(--color4, #8e8f99)"/><path fill="#8e8f99" d="M20.74 31.83 0 26.75V8.85l20.74 5.09v17.9z" style="fill:var(--color4, #8e8f99)"/><path fill="#8e8f99" d="m9.97 1.69 18.14 4.45-7.71 6.66L2.25 8.35l7.72-6.66zM9.63.55 0 8.85l20.74 5.09 9.63-8.31L9.63.55zM21.9 30.83l8.47-7.3-8.46-2.08v9.38z" style="fill:var(--color4, #8e8f99)"/></symbol><symbol id="icon-group-41" viewBox="0 0 44 32"><path fill="#8e8f99" d="M3.33 26.7c.17.18.27.42.26.67 0 .16-.02.32-.1.46s-.17.28-.3.39c-.33.22-.74.33-1.15.3H0v-4.26h2c.39-.02.78.08 1.1.28.13.1.23.22.3.36s.1.3.08.44a.92.92 0 0 1-.23.65 1.1 1.1 0 0 1-.6.34c.27.04.5.17.68.36zm-2.38-.65h.85c.2.01.38-.04.54-.14.07-.05.12-.12.15-.2s.04-.14.03-.22c0-.08 0-.15-.03-.23s-.08-.13-.15-.19a.9.9 0 0 0-.55-.14H.95v1.12zm1.47 1.64c.07-.06.13-.12.16-.2s.05-.16.04-.24c.01-.08 0-.16-.04-.24s-.1-.14-.16-.2a.95.95 0 0 0-.58-.15h-.9v1.18h.91c.2 0 .4-.05.57-.15zM7.4 28.53l-1.1-1.67h-.42v1.67h-.95v-4.27h1.8c.46-.03.9.1 1.26.36.25.24.4.54.43.86s-.08.65-.3.91a1.5 1.5 0 0 1-.86.43l1.19 1.7H7.4zm-1.52-2.25h.78c.54 0 .81-.21.81-.65.01-.08 0-.17-.04-.25s-.09-.16-.15-.23a.91.91 0 0 0-.62-.17h-.79l.01 1.3zM12.62 27.67h-1.9l-.34.86h-1l1.75-4.22h1.08l1.74 4.22h-1l-.33-.86zm-.25-.65-.7-1.8-.7 1.8h1.4zM19.15 28.53h-.95l-2.12-2.9v2.9h-.95v-4.27h.95l2.12 2.92v-2.92h.95v4.27zM24.55 27.5c-.2.33-.5.6-.86.76-.4.19-.87.28-1.33.27h-1.68v-4.27h1.68c.46 0 .92.08 1.33.26.37.17.66.43.86.75a2.28 2.28 0 0 1 0 2.24zm-1.08-.1c.27-.28.42-.64.42-1.01s-.15-.74-.42-1.02a1.77 1.77 0 0 0-1.19-.36h-.66v2.76h.66c.43.02.86-.1 1.19-.37zM13.21.53S25.43 4.7 25.17 10.7v10.16s-12.2-4.15-11.95-10.16V.53zM36.06 18.48a17.92 17.92 0 0 1 7.77-2.57v-3.19a15.67 15.67 0 0 0-7.77 5.76z" style="fill:var(--color4, #8e8f99)"/><path fill="#8e8f99" d="M34.67 19.44a16.13 16.13 0 0 1 9.16-7.38V2.89S26.43 8.8 26.79 17.36v14.48s.78-.27 2-.76c0-.47 0-.93.05-1.4a14.6 14.6 0 0 1 5.83-10.24z" style="fill:var(--color4, #8e8f99)"/><path fill="#8e8f99" d="M33.02 24.82c.1-1 .3-2 .6-2.96a13.29 13.29 0 0 0-3.68 8.74c1-.43 2.14-.96 3.35-1.59-.3-1.38-.4-2.79-.27-4.19zM33.71 24.87c-.11 1.27-.04 2.54.22 3.8 4.75-2.57 10.1-6.52 9.89-11.3v-.42a16.4 16.4 0 0 0-9.05 3.8c-.58 1.32-.93 2.7-1.06 4.12z" style="fill:var(--color4, #8e8f99)"/></symbol><symbol id="icon-group-31" viewBox="0 0 66 32"><path fill="#8e8f99" d="M10.2 9.77c-1.86 0-3.37 1.36-3.37 3.04s1.51 3.04 3.37 3.04c1.87 0 3.38-1.36 3.38-3.04s-1.51-3.04-3.37-3.04zM35.1 8.8c-.01-2.33-1.04-4.57-2.87-6.22S27.93.01 25.33 0c-2.58 0-5.06.93-6.89 2.58s-2.86 3.89-2.87 6.22v12.86S35.1 19.7 35.1 8.8zM0 25.88c0 1.62.72 3.17 2 4.32S4.98 32 6.78 32c1.8 0 3.52-.65 4.8-1.8s1.98-2.7 1.99-4.32v-8.95S0 18.3 0 25.88zm6.79 1.6c-.35 0-.7-.1-.99-.27s-.52-.43-.65-.72a1.48 1.48 0 0 1 .38-1.75 1.96 1.96 0 0 1 1.94-.35c.32.13.6.33.8.6A1.5 1.5 0 0 1 8.05 27c-.17.15-.36.27-.58.35s-.45.13-.68.13v-.01zM19.2 24.6v3.33h-.68V24.6h.69zm1.33 1.42v.53h-1.51v-.53h1.51zm.16-1.42v.53h-1.67v-.53h1.67zm3.14 1.58v.16c0 .26-.04.48-.1.68s-.17.38-.3.52c-.12.14-.27.25-.44.32-.18.08-.37.11-.58.11a1.29 1.29 0 0 1-1.02-.43 1.5 1.5 0 0 1-.3-.52 2.1 2.1 0 0 1-.1-.68v-.15c0-.26.03-.49.1-.69.07-.2.17-.37.3-.51.12-.14.27-.25.44-.32.18-.08.37-.12.58-.12.2 0 .4.04.57.12.17.07.32.18.45.32.12.14.22.31.3.51.06.2.1.43.1.69zm-.7.16v-.16c0-.18-.01-.33-.04-.47s-.08-.24-.15-.33-.14-.16-.23-.21c-.09-.05-.19-.07-.3-.07s-.22.02-.31.07a.61.61 0 0 0-.23.2c-.06.1-.1.21-.14.34s-.05.3-.05.47v.16c0 .18.02.33.05.47.03.13.08.25.14.34.07.09.14.16.23.2s.2.08.31.08c.12 0 .22-.03.31-.07s.17-.12.23-.21c.06-.1.1-.2.14-.34.03-.14.04-.3.04-.47zm2.92.71c0-.05 0-.1-.02-.16a.3.3 0 0 0-.1-.13c-.05-.04-.11-.08-.2-.12l-.33-.12c-.15-.05-.3-.1-.43-.17a1.77 1.77 0 0 1-.36-.21.95.95 0 0 1-.24-.29.79.79 0 0 1-.09-.37c0-.14.03-.27.1-.38a.87.87 0 0 1 .25-.3c.11-.07.24-.14.39-.18a1.77 1.77 0 0 1 1.14.06c.18.1.32.21.42.37.1.15.15.33.15.53h-.68c0-.1-.02-.19-.06-.26a.42.42 0 0 0-.18-.18.65.65 0 0 0-.3-.06.7.7 0 0 0-.3.06.4.4 0 0 0-.18.14.35.35 0 0 0-.06.2c0 .06.01.1.04.15.03.05.07.1.13.13l.2.11.3.1c.17.06.33.12.47.2.14.06.25.14.35.22s.16.18.2.3c.05.1.08.22.08.36 0 .14-.03.27-.09.39s-.13.21-.24.29c-.1.08-.24.14-.38.18a1.85 1.85 0 0 1-1.42-.2c-.13-.09-.24-.2-.31-.34s-.12-.3-.12-.49h.69c0 .1.01.2.04.27s.08.13.14.17c.06.04.13.08.21.1.08.02.17.03.27.03.12 0 .22-.02.3-.05a.36.36 0 0 0 .22-.34zm2.64-2.45v3.33h-.68V24.6h.68zm1.03 0v.53H27v-.53h2.72zm2.62 2.8v.53h-1.77v-.54h1.77zm-1.55-2.8v3.33h-.68V24.6h.69zm1.32 1.35v.52h-1.54v-.52h1.54zm.23-1.35v.53h-1.77v-.53h1.77zm.4 0H34c.25 0 .47.03.65.11.18.08.33.19.43.34s.14.33.14.55c0 .18-.03.33-.09.46a.85.85 0 0 1-.25.32c-.1.08-.23.15-.38.2l-.22.11H33.2v-.53h.8c.12 0 .22-.02.3-.07s.14-.1.18-.17a.55.55 0 0 0 .06-.27c0-.1-.02-.2-.06-.28s-.1-.13-.18-.17-.18-.07-.3-.07h-.56v2.8h-.69V24.6zm1.86 3.33-.75-1.49h.72l.77 1.45v.04h-.74zm3.6-1.19h-.84v-.54h.85c.13 0 .23-.02.32-.06.08-.04.14-.1.18-.18s.05-.17.05-.27-.01-.19-.05-.27-.1-.16-.18-.2-.2-.09-.32-.09h-.61v2.8h-.7V24.6h1.3c.27 0 .49.04.68.14a1.02 1.02 0 0 1 .58.95.95.95 0 0 1-.58.92c-.19.09-.41.13-.67.13zm3.96.65v.54H40.4v-.54h1.77zm-1.55-2.8v3.34h-.68V24.6h.68zm1.32 1.36v.52H40.4v-.52h1.54zm.23-1.35v.53h-1.77v-.53h1.77zm1.94 0v3.33h-.69V24.6h.69zm1.02 0v.53h-2.71v-.53h2.71zm2.63 2.8v.53h-1.78v-.54h1.78zm-1.55-2.8v3.33h-.69V24.6h.69zm1.31 1.35v.52h-1.54v-.52h1.55zm.23-1.35v.53h-1.77v-.53h1.77zm.4 0h1.25c.25 0 .47.03.65.11.19.08.33.19.43.34s.15.33.15.55c0 .18-.03.33-.1.46a.85.85 0 0 1-.25.32c-.1.08-.23.15-.38.2l-.22.11H48.6v-.53h.8c.12 0 .22-.02.3-.07s.14-.1.18-.17a.55.55 0 0 0 .06-.27c0-.1-.02-.2-.06-.28s-.1-.13-.18-.17a.67.67 0 0 0-.3-.07h-.56v2.8h-.68V24.6zm1.87 3.33-.76-1.49h.72l.77 1.45v.04h-.73zm2.87-.88-.03-.16a.3.3 0 0 0-.1-.13c-.04-.04-.1-.08-.2-.12l-.32-.12c-.16-.05-.3-.1-.43-.17a1.77 1.77 0 0 1-.36-.21.95.95 0 0 1-.24-.29.79.79 0 0 1-.1-.37.87.87 0 0 1 .35-.67c.12-.09.25-.15.4-.2a1.77 1.77 0 0 1 1.13.07c.19.1.33.21.43.37.1.15.15.33.15.53h-.68c0-.1-.02-.19-.06-.26a.42.42 0 0 0-.18-.18.65.65 0 0 0-.31-.06.7.7 0 0 0-.3.06.4.4 0 0 0-.18.14.35.35 0 0 0-.05.2c0 .06 0 .1.04.15.03.05.07.1.12.13l.21.11c.08.04.18.07.29.1.18.06.34.12.48.2.14.06.25.14.34.22a.84.84 0 0 1 .29.66c0 .14-.03.27-.09.39s-.14.21-.24.29c-.11.08-.24.14-.39.18a1.9 1.9 0 0 1-.98 0c-.16-.05-.3-.11-.44-.2-.13-.09-.23-.2-.3-.34s-.12-.3-.12-.49h.68c0 .1.02.2.05.27s.08.13.14.17c.06.04.13.08.2.1.09.02.18.03.28.03.12 0 .21-.02.29-.05a.36.36 0 0 0 .23-.34z" style="fill:var(--color4, #8e8f99)"/></symbol><symbol id="icon-group-21" viewBox="0 0 34 32"><path fill="#8e8f99" d="M5.32 31.4h.03l.03.02.17.16c-.13.13-.3.24-.48.3a1.9 1.9 0 0 1-.69.12c-.22 0-.44-.03-.65-.1a1.41 1.41 0 0 1-.48-.3 1.3 1.3 0 0 1-.32-.44A1.49 1.49 0 0 1 2.94 30c.08-.17.2-.32.34-.45.14-.12.32-.22.51-.29a2.07 2.07 0 0 1 1.29 0c.17.05.32.14.46.25l-.14.17a.12.12 0 0 1-.04.03.1.1 0 0 1-.06.02l-.06-.02-.08-.05-.1-.06a1.2 1.2 0 0 0-.35-.1 1.57 1.57 0 0 0-.73.06 1 1 0 0 0-.62.56c-.06.15-.09.3-.09.46 0 .16.03.32.1.46a1.02 1.02 0 0 0 .59.56c.14.05.29.08.44.08.09 0 .18 0 .26-.02a1.07 1.07 0 0 0 .57-.24.13.13 0 0 1 .09-.02zM10.3 30.58c0 .2-.05.39-.12.57-.07.17-.18.32-.33.45s-.32.22-.5.29c-.43.14-.9.14-1.32 0-.19-.07-.36-.17-.5-.3a1.3 1.3 0 0 1-.33-.44 1.47 1.47 0 0 1 0-1.15c.07-.17.18-.32.33-.45.14-.12.31-.22.5-.28a2.1 2.1 0 0 1 1.31 0c.2.06.37.16.51.3a1.32 1.32 0 0 1 .44 1.01zm-.46 0c0-.16-.02-.31-.08-.46a.94.94 0 0 0-.6-.56c-.3-.1-.64-.1-.95 0-.14.05-.26.12-.36.22-.1.1-.19.21-.24.34-.1.3-.1.62 0 .92a.94.94 0 0 0 .6.56c.3.1.64.1.95 0a.97.97 0 0 0 .6-.56c.05-.15.08-.3.08-.46zM13.69 31.06l.04.1.05-.1a.83.83 0 0 1 .06-.1l1.1-1.7c.02-.04.04-.06.06-.06l.1-.01h.32v2.78h-.39v-2.23l-1.1 1.74-.07.06a.16.16 0 0 1-.1.02h-.06c-.03 0-.06 0-.1-.02s-.04-.04-.06-.07l-1.14-1.74v2.23h-.37V29.2H12.45c.02.02.04.03.05.06l1.13 1.71.06.1zM17.83 30.92v1.05h-.43v-2.78h.96c.18 0 .36.02.54.06.13.03.26.1.37.17.1.08.17.17.22.27.05.12.08.24.07.36a.77.77 0 0 1-.31.63 1.1 1.1 0 0 1-.38.19c-.17.04-.34.06-.52.06h-.52zm0-.3h.52c.11 0 .23 0 .33-.04a.73.73 0 0 0 .25-.12.53.53 0 0 0 .2-.42c0-.07-.02-.15-.05-.22s-.08-.14-.15-.19a.94.94 0 0 0-.58-.15h-.52v1.15zM23.62 31.97h-.34c-.03 0-.07 0-.1-.03a.17.17 0 0 1-.05-.06l-.3-.67h-1.46l-.3.67a.16.16 0 0 1-.15.1h-.35l1.3-2.8h.44l1.31 2.8zm-2.13-1.03h1.21l-.51-1.14a1.78 1.78 0 0 1-.1-.26l-.05.15-.04.12-.51 1.13zM25.48 29.2l.07.05 1.88 2.1v-2.16h.39v2.78h-.22a.2.2 0 0 1-.08-.02.22.22 0 0 1-.07-.05l-1.89-2.1v2.17h-.38v-2.78h.23a.2.2 0 0 1 .07.01zM31 30.86v1.1h-.44v-1.1l-1.19-1.67h.39c.03 0 .06 0 .09.02l.06.06.74 1.09a1.78 1.78 0 0 1 .13.24l.06-.12a.95.95 0 0 1 .07-.12l.74-1.1a.26.26 0 0 1 .05-.05.15.15 0 0 1 .1-.03h.39l-1.2 1.68zM13.47 24.52l.57.05c2.91-1.1 5.37-2.93 7.07-5.22s2.58-4.98 2.51-7.7l-3.2-2.74c.65 2.9.35 5.9-.88 8.65s-3.33 5.17-6.07 6.96z" style="fill:var(--color4, #8e8f99)"/><path fill="#8e8f99" d="M12.33 24.4h.09c2.92-1.78 5.15-4.28 6.4-7.16s1.46-6.02.6-9l-4.57-3.9c1.85 3.2 2.59 6.78 2.14 10.34s-2.06 6.92-4.66 9.71zM27.8 14.86a14.01 14.01 0 0 1-5.36 7.69c-.8.59-1.65 1.11-2.56 1.56 2.21-.55 4.24-1.53 5.93-2.86s3.01-2.98 3.84-4.8l-1.85-1.59z" style="fill:var(--color4, #8e8f99)"/><path fill="#8e8f99" d="m27.08 14.42-2.64-2.25c-.05 2.57-.9 5.08-2.47 7.27s-3.8 3.98-6.45 5.18h.02c.59 0 1.18-.03 1.77-.09 2.47-.86 4.66-2.24 6.37-4s2.87-3.86 3.4-6.1zM12.71 2.69 9.57 0C6.76.93 4.34 2.56 2.63 4.68S.01 9.3 0 11.88c.01 2.85 1.13 5.6 3.18 7.85s4.93 3.83 8.16 4.52c2.88-3 4.57-6.71 4.81-10.59s-.95-7.72-3.44-10.97zM34.34 14c-.01-3.37-1.58-6.6-4.38-8.99S23.4 1.28 19.44 1.27c-1.83 0-3.64.29-5.34.85l19.25 16.45c.65-1.46 1-3 .99-4.56z" style="fill:var(--color4, #8e8f99)"/></symbol><symbol id="icon-group-11" viewBox="0 0 28 32"><path fill="#8e8f99" d="m4.08 0 4.78 4.55H0v22.04h23.15v-8.43l4.77 4.54V0H4.07zm18.86 17.63L9.4 4.74h13.53v12.89zm-4.2 5.74H3.66V8.54h1.07v13.82h14v1zM6.67 30.68l-.56-1.16h-.47l.82 1.53v.9h.42v-.9l.81-1.52h-.46l-.56 1.15zm2.07-1.16h.1l.91 2.42h-.43l-.2-.56h-.94l-.2.57h-.43l.91-2.42h.28zm-.44 1.53H9l-.35-1.03-.35 1.03zm2.92-.4-.05-.07a1.27 1.27 0 0 1-.15-.24.65.65 0 0 1 .03-.57c.05-.09.13-.16.22-.2a.7.7 0 0 1 .33-.08c.13 0 .23.03.32.08.1.04.16.11.2.19a.5.5 0 0 1 .08.27c0 .07-.01.14-.04.2s-.07.13-.12.18l-.17.15-.16.12.47.56a.97.97 0 0 0 .11-.45h.35c0 .12-.02.23-.04.34a1.04 1.04 0 0 1-.18.4l.36.41h-.47l-.14-.16a.95.95 0 0 1-.24.13 1.1 1.1 0 0 1-.8-.02.67.67 0 0 1-.27-.24.67.67 0 0 1-.1-.36c0-.1.03-.18.07-.26a.8.8 0 0 1 .16-.2l.23-.18zm.2.24-.05.03-.13.14a.4.4 0 0 0-.02.41c.03.06.07.1.13.14.06.03.13.05.22.05a.62.62 0 0 0 .39-.14l-.54-.63zm.1-.44.14-.1c.07-.05.12-.1.15-.14a.3.3 0 0 0 .05-.17c0-.06-.02-.11-.07-.16s-.1-.07-.19-.07a.25.25 0 0 0-.23.14.34.34 0 0 0-.02.14c0 .05 0 .1.03.16a1 1 0 0 0 .14.2zm4.23.7h-.42c0 .11-.03.2-.07.28a.38.38 0 0 1-.17.16.63.63 0 0 1-.29.06c-.1 0-.18-.02-.25-.06s-.13-.1-.17-.17a.82.82 0 0 1-.1-.25c-.02-.1-.03-.21-.03-.33v-.2c0-.14 0-.25.03-.35.03-.1.06-.18.1-.25s.12-.12.19-.16a.56.56 0 0 1 .25-.05c.11 0 .2.02.28.06.07.04.13.1.16.17.04.07.06.16.08.27h.41c-.02-.17-.06-.3-.13-.43-.08-.13-.18-.23-.31-.3s-.3-.1-.5-.1c-.14 0-.28.02-.4.08a.86.86 0 0 0-.31.23c-.1.1-.16.22-.2.36-.05.14-.07.3-.07.47v.2c0 .18.02.33.06.47.05.14.12.26.2.36.09.1.19.18.3.23.13.06.26.08.41.08.2 0 .36-.03.5-.1s.24-.17.32-.3a.96.96 0 0 0 .13-.42zm2.3-.35v-.13c0-.19-.01-.35-.06-.5a1.08 1.08 0 0 0-.2-.36.87.87 0 0 0-.32-.24 1 1 0 0 0-.41-.08 1 1 0 0 0-.41.08.88.88 0 0 0-.32.24c-.09.1-.15.22-.2.37-.05.14-.08.3-.08.49v.13c0 .18.03.35.08.5.05.14.12.26.2.36s.2.18.32.24c.13.05.26.08.4.08.16 0 .3-.03.42-.08a.88.88 0 0 0 .31-.24c.1-.1.16-.22.2-.37s.08-.3.08-.49zm-.4-.14v.14c0 .14-.02.26-.05.36-.02.1-.06.2-.11.26a.5.5 0 0 1-.43.22.56.56 0 0 1-.25-.06.53.53 0 0 1-.18-.16c-.05-.07-.1-.16-.12-.26s-.04-.22-.04-.36v-.14c0-.13.01-.25.04-.35.03-.1.07-.2.12-.26a.5.5 0 0 1 .43-.22c.09 0 .17.02.24.06.08.03.14.09.19.16.05.07.09.15.11.26.03.1.04.22.04.35z" style="fill:var(--color4, #8e8f99)"/></symbol><symbol id="icon-group1" viewBox="0 0 25 32"><path fill="#8e8f99" d="M10.53 1.8h-.75a14.18 14.18 0 0 0-.8.01 17.4 17.4 0 0 0-6.47 1.65l-.26.13v13.63l.62-.22a21.16 21.16 0 0 1 6.71-1.18v1.8c-.22 0-.44 0-.65.02h-.05A19.95 19.95 0 0 0 .48 20V2.54A18.3 18.3 0 0 1 5.27.58C6.74.2 8.26.01 9.78 0h.26a12.96 12.96 0 0 1 3.16.4v1.76c-.71-.16-1.44-.27-2.18-.33h-.04l-.45-.03zm3.1 1.8a19.35 19.35 0 0 0 5.95-.56c1.6-.4 3.13-1 4.57-1.78v17.16c-1.5.88-3.11 1.53-4.8 1.95-1.47.38-2.99.58-4.5.58-1.16.01-2.31-.12-3.43-.4V3.27a14.28 14.28 0 0 0 2.21.34zm8.74.14-.63.21c-.57.2-1.15.36-1.73.52a21.1 21.1 0 0 1-6.31.63l-.5-.04v14.02l.43.04a16.57 16.57 0 0 0 5.29-.48 17.1 17.1 0 0 0 3.18-1.14l.27-.13V3.74zM1.68 25.98A.91.91 0 0 0 1 25.7c-.14 0-.27.02-.4.07a.91.91 0 0 0-.51.52c-.05.12-.07.25-.07.39V29c0 .17.02.33.09.48a.81.81 0 0 0 .55.48c.12.03.23.05.35.05a.97.97 0 0 0 .9-.61.95.95 0 0 0 .07-.37v-.26h-.61v.2c0 .07-.01.15-.04.21a.36.36 0 0 1-.09.13.37.37 0 0 1-.12.07.42.42 0 0 1-.13.02.31.31 0 0 1-.29-.12.55.55 0 0 1-.08-.32V26.8c0-.12.02-.24.08-.35.03-.05.07-.1.12-.12s.12-.03.17-.02c.06 0 .11 0 .16.03s.09.06.12.1c.06.09.1.2.1.31v.2h.6v-.24a1.1 1.1 0 0 0-.28-.73zM5.31 25.95a1.05 1.05 0 0 0-1.38 0c-.1.1-.18.2-.24.33-.06.14-.09.3-.09.45v2.24c0 .16.03.31.1.46a.9.9 0 0 0 .23.31c.1.09.2.15.32.2a1.08 1.08 0 0 0 .73 0c.12-.05.23-.11.33-.2.1-.09.18-.2.23-.31.06-.15.1-.3.09-.46v-2.24a1.02 1.02 0 0 0-.32-.78zm-.28 3.02a.4.4 0 0 1-.13.32.45.45 0 0 1-.57 0 .4.4 0 0 1-.12-.32v-2.24a.4.4 0 0 1 .12-.32.45.45 0 0 1 .57 0 .4.4 0 0 1 .13.32v2.24zM10.07 29.97v-4.24h-.59l-.77 2.24-.78-2.24h-.59v4.24h.61v-2.58h.01l.6 1.82h.3l.6-1.82v2.58h.61zM13.51 26.03a.84.84 0 0 0-.34-.24 1.36 1.36 0 0 0-.44-.06h-.9v4.24h.6V28.3h.32c.18.01.37-.03.54-.11a.88.88 0 0 0 .33-.33c.07-.11.12-.24.14-.37a3 3 0 0 0-.02-1.08.9.9 0 0 0-.23-.4zm-.3 1.29c-.01.08-.03.15-.07.22a.35.35 0 0 1-.15.15.62.62 0 0 1-.29.05h-.27V26.3h.31c.1 0 .19.02.27.05.06.04.11.1.14.16.04.08.05.16.06.24V27.32zM16.37 25.73h-.5l-.92 4.24h.6l.18-.91h.82l.18.9h.6l-.96-4.23zm-.55 2.75.3-1.54.3 1.54h-.6zM20.28 28.28h-.01l-.92-2.55h-.58v4.24h.6v-2.55h.02l.92 2.55h.57v-4.24h-.6v2.55zM23.97 25.73l-.49 1.69h-.01l-.49-1.69h-.64l.83 2.45v1.79h.6v-1.8l.84-2.44h-.64zM0 31.17h.3v.81h.19v-.81h.29V31H0v.17zM2.45 31l-.38.98h.2l.09-.22h.39l.08.22h.22l-.4-.98h-.2zm-.03.6.13-.37.13.36h-.26zM4.87 31.62h.22v.13a.38.38 0 0 1-.23.08c-.04 0-.08 0-.12-.02l-.09-.07a.41.41 0 0 1-.07-.26c0-.22.1-.33.28-.33.05 0 .1 0 .14.04s.07.07.08.12l.2-.04c-.05-.2-.18-.29-.42-.29a.5.5 0 0 0-.34.13c-.05.05-.1.1-.12.17s-.03.14-.03.2c0 .14.04.27.13.38a.48.48 0 0 0 .38.14c.15 0 .3-.05.41-.16v-.39h-.42v.17zM7.34 31h-.2v.98h.69v-.17h-.5V31zM9.43 31h-.2v.98h.2V31zM11.47 31.66l-.4-.66h-.2v.98h.19v-.64l.4.64h.2V31h-.2v.66zM13.31 31.55h.5v-.17h-.5v-.21h.53V31h-.72v.98h.74v-.16h-.54v-.27zM17.8 31.39h-.4v-.4h-.2v1h.2v-.44h.4v.43h.19V31h-.2v.39zM19.65 31.55h.5v-.17h-.5v-.21h.53V31h-.73v.98h.75v-.16h-.55v-.27zM22.17 31.55c.17-.03.26-.12.26-.28a.24.24 0 0 0-.1-.21.55.55 0 0 0-.29-.06h-.42v.98h.2v-.41h.04c.04 0 .09 0 .12.02s.06.04.07.07l.22.32h.24l-.12-.2a.69.69 0 0 0-.22-.23zm-.2-.14h-.15v-.24h.16c.07 0 .13 0 .2.02l.03.04.01.06-.01.06a.11.11 0 0 1-.04.04.55.55 0 0 1-.2.02zM24.07 31.55h.49v-.17h-.5v-.21h.54V31h-.73v.98h.74v-.16h-.54v-.27z" style="fill:var(--color4, #8e8f99)"/></symbol><symbol id="icon-Linkedin1" viewBox="0 0 32 32"><path fill="#4d5ae5" d="M32 16c0 4.42-1.8 8.42-4.69 11.31a15.96 15.96 0 0 1-22.62 0 15.95 15.95 0 0 1 0-22.63C7.59 1.8 11.59 0 16 0c4.42 0 8.42 1.8 11.31 4.69S32 11.59 32 16z" style="fill:var(--color3, #4d5ae5)"/><path fill="#f4f4fd" d="M22.4 22.4v-4.7c0-2.3-.5-4.06-3.18-4.06-1.29 0-2.16.7-2.5 1.38h-.05v-1.17h-2.54v8.55h2.65v-4.23c0-1.12.21-2.2 1.59-2.2 1.36 0 1.38 1.28 1.38 2.27v4.16h2.65zM9.81 13.85h2.65v8.55H9.81v-8.55zM11.14 9.6a1.55 1.55 0 0 0 0 3.09c.85 0 1.53-.7 1.53-1.55s-.69-1.54-1.53-1.54z" style="fill:var(--color2, #f4f4fd)"/></symbol><symbol id="icon-Facebook1" viewBox="0 0 32 32"><path fill="#4d5ae5" d="M32 16c0 4.42-1.8 8.42-4.69 11.31a15.96 15.96 0 0 1-22.62 0 15.95 15.95 0 0 1 0-22.63C7.59 1.8 11.59 0 16 0c4.42 0 8.42 1.8 11.31 4.69S32 11.59 32 16z" style="fill:var(--color3, #4d5ae5)"/><path fill="#f4f4fd" d="M18.13 11.72h1.17V9.7c-.2-.03-.9-.09-1.7-.09-1.69 0-2.84 1.06-2.84 3v1.8H12.9v2.27h1.86v5.73h2.28v-5.72h1.78l.29-2.28h-2.07v-1.57c0-.65.18-1.1 1.1-1.1z" style="fill:var(--color2, #f4f4fd)"/></symbol><symbol id="icon-Instagram1" viewBox="0 0 32 32"><path fill="#4d5ae5" d="M32 16c0 4.42-1.8 8.42-4.69 11.31a15.96 15.96 0 0 1-22.62 0 15.95 15.95 0 0 1 0-22.63C7.59 1.8 11.59 0 16 0c4.42 0 8.42 1.8 11.31 4.69S32 11.59 32 16z" style="fill:var(--color3, #4d5ae5)"/><path fill="#f4f4fd" d="M22.39 13.36a4.67 4.67 0 0 0-.3-1.55 3.14 3.14 0 0 0-.74-1.14c-.32-.32-.7-.57-1.13-.73-.41-.16-.88-.27-1.56-.3-.68-.03-.9-.04-2.64-.04s-1.95 0-2.64.04c-.68.03-1.14.14-1.55.3-.43.16-.81.4-1.13.74-.33.32-.58.7-.74 1.13-.16.4-.27.87-.3 1.55-.03.69-.04.9-.04 2.64s0 1.96.04 2.64c.03.68.14 1.15.3 1.55.16.43.41.82.74 1.14.32.32.7.58 1.13.74.4.15.87.26 1.55.3.69.02.9.03 2.64.03s1.96 0 2.64-.04a4.67 4.67 0 0 0 1.55-.3 3.28 3.28 0 0 0 1.87-1.87c.16-.4.27-.87.3-1.55.03-.68.04-.9.04-2.64s0-1.95-.03-2.64zm-1.16 5.23c-.02.62-.13.96-.22 1.19-.21.55-.65 1-1.21 1.21-.23.09-.56.2-1.19.22-.67.03-.88.04-2.58.04s-1.92 0-2.59-.04a3.49 3.49 0 0 1-1.19-.22c-.27-.1-.53-.26-.73-.48a2 2 0 0 1-.48-.73 3.5 3.5 0 0 1-.22-1.19c-.03-.67-.04-.88-.04-2.59s0-1.9.04-2.58c.03-.63.13-.96.22-1.19.1-.28.27-.53.48-.73.2-.22.46-.38.74-.48.22-.09.56-.2 1.18-.22.68-.03.88-.04 2.59-.04 1.7 0 1.91 0 2.58.04.63.03.97.13 1.2.22.27.1.52.26.73.48.21.2.37.45.48.73.08.23.19.57.22 1.19.03.67.03.88.03 2.58s0 1.91-.03 2.59z" style="fill:var(--color2, #f4f4fd)"/><path fill="#f4f4fd" d="M16.02 12.71a3.29 3.29 0 1 0 0 6.58 3.29 3.29 0 0 0 0-6.58zm0 5.42a2.13 2.13 0 1 1 0-4.26 2.13 2.13 0 0 1 0 4.26zM20.21 12.58a.77.77 0 1 1-1.54 0 .77.77 0 0 1 1.54 0z" style="fill:var(--color2, #f4f4fd)"/></symbol><symbol id="icon-Twitter1" viewBox="0 0 32 32"><path fill="#4d5ae5" d="M32 16c0 4.42-1.8 8.42-4.69 11.31a15.96 15.96 0 0 1-22.62 0 15.95 15.95 0 0 1 0-22.63C7.59 1.8 11.59 0 16 0c4.42 0 8.42 1.8 11.31 4.69S32 11.59 32 16z" style="fill:var(--color3, #4d5ae5)"/><path fill="#f4f4fd" d="M22.4 12.03c-.48.21-.98.35-1.51.42A2.6 2.6 0 0 0 22.04 11c-.5.3-1.07.51-1.66.63a2.63 2.63 0 0 0-4.48 2.4 7.43 7.43 0 0 1-5.4-2.75c-.24.4-.37.84-.37 1.32 0 .91.47 1.72 1.17 2.19a2.6 2.6 0 0 1-1.19-.33v.03c0 1.28.91 2.34 2.1 2.58a2.64 2.64 0 0 1-1.18.04 2.65 2.65 0 0 0 2.45 1.83 5.27 5.27 0 0 1-3.88 1.08 7.38 7.38 0 0 0 4.02 1.18 7.42 7.42 0 0 0 7.46-7.8c.52-.38.96-.84 1.32-1.37z" style="fill:var(--color2, #f4f4fd)"/></symbol></defs></svg>